<?xml version="1.0" encoding="UTF-8"?>
<svg xmlns="http://www.w3.org/2000/svg" xmlns:xlink="http://www.w3.org/1999/xlink" width="50px" height="px" viewBox="0 0 50 50" version="1.1">
<g id="surface1">
<path style=" stroke:none;fill-rule:nonzero;fill:rgb(100%,34.509804%,31.372549%);fill-opacity:1;" d="M 50 25 C 50 38.804688 38.804688 50 25 50 C 11.191406 50 0 38.804688 0 25 C 0 11.191406 11.191406 0 25 0 C 38.808594 0 50 11.191406 50 25 "/>
<path style=" stroke:none;fill-rule:nonzero;fill:rgb(100%,100%,100%);fill-opacity:1;" d="M 25.421875 15.628906 L 31.890625 31.597656 L 22.117188 23.898438 Z M 36.914062 35.273438 L 26.960938 11.328125 C 26.726562 10.679688 26.109375 10.257812 25.421875 10.269531 C 24.722656 10.253906 24.089844 10.675781 23.835938 11.328125 L 12.914062 37.59375 L 16.652344 37.59375 L 20.976562 26.765625 L 33.878906 37.1875 C 34.398438 37.609375 34.769531 37.796875 35.257812 37.796875 C 35.738281 37.808594 36.203125 37.625 36.546875 37.289062 C 36.890625 36.953125 37.085938 36.492188 37.085938 36.011719 C 37.066406 35.757812 37.011719 35.511719 36.914062 35.273438 "/>
</g>
</svg>
