<?xml version="1.0" encoding="UTF-8"?>
<svg xmlns="http://www.w3.org/2000/svg" xmlns:xlink="http://www.w3.org/1999/xlink" width="50px" height="px" viewBox="0 0 50 50" version="1.1">
<g id="surface1">
<path style=" stroke:none;fill-rule:nonzero;fill:rgb(99.607843%,99.607843%,99.607843%);fill-opacity:1;" d="M 22.238281 40.550781 C 22.242188 40.550781 22.246094 40.5625 22.246094 40.589844 L 22.257812 41.136719 L 22.339844 40.71875 C 22.320312 40.457031 22.113281 40.589844 22.238281 40.558594 Z M 33.53125 25.828125 C 33.527344 25.832031 33.519531 25.832031 33.515625 25.835938 C 33.519531 25.839844 33.527344 25.84375 33.53125 25.851562 C 33.527344 25.847656 33.53125 25.835938 33.53125 25.828125 Z M 26.417969 7.761719 Z M 26.417969 7.761719 "/>
<path style=" stroke:none;fill-rule:nonzero;fill:rgb(99.607843%,45.098039%,24.313725%);fill-opacity:1;" d="M 32.464844 44.046875 L 32.566406 42.171875 C 32.738281 40.808594 32.574219 39.414062 32.933594 38.066406 C 33.109375 37.367188 32.546875 36.550781 33.269531 35.9375 L 33.089844 35.34375 C 32.886719 35.007812 32.992188 34.683594 33.113281 34.355469 C 33.097656 33.160156 33.113281 31.960938 33.328125 30.777344 L 33.523438 25.839844 C 33.519531 25.835938 33.511719 25.832031 33.507812 25.828125 C 29.992188 27.441406 26.675781 25.183594 26.113281 22.472656 C 25.742188 20.691406 25.941406 19.007812 27.332031 17.644531 C 27.5625 17.417969 27.761719 17.15625 27.976562 16.90625 C 28.542969 13.5 28.132812 10.375 25.238281 7.941406 C 25.671875 7.691406 26.066406 7.832031 26.410156 7.769531 C 22.847656 6.871094 18.519531 9.3125 17.085938 13.039062 C 16.65625 14.15625 16.421875 15.304688 16.496094 16.511719 C 20.035156 14.871094 23.214844 16.832031 24.078125 19.8125 C 24.988281 22.917969 22.570312 26.203125 19.351562 26.25 C 18.414062 26.261719 17.523438 26.105469 16.636719 25.84375 L 16.835938 30.984375 C 16.960938 32.105469 17.09375 33.226562 17.039062 34.359375 L 17.0625 35.160156 L 17.039062 35.691406 C 17.300781 36.769531 17.355469 37.875 17.4375 38.976562 C 17.429688 38.949219 17.425781 38.917969 17.421875 38.890625 C 17.425781 38.921875 17.433594 38.945312 17.4375 38.96875 L 17.710938 44.589844 C 17.765625 45.363281 17.484375 45.75 16.773438 45.949219 C 15.929688 46.1875 15.097656 46.46875 14.261719 46.738281 C 15.382812 46.890625 16.484375 46.910156 17.585938 46.882812 C 18.777344 46.855469 19.320312 46.335938 19.4375 45.144531 L 19.644531 42.882812 L 19.875 38.785156 L 20.042969 38.785156 L 20.042969 42.683594 L 20.113281 44.457031 C 20.285156 47.207031 20.367188 47.1875 17.625 47.738281 C 17.558594 47.75 17.503906 47.789062 17.445312 47.816406 L 17.933594 48.144531 C 17.988281 48.15625 18.027344 48.175781 18.054688 48.226562 C 18.710938 48.230469 19.367188 48.285156 20.015625 48.226562 C 21.1875 48.113281 21.746094 47.484375 21.832031 46.320312 C 21.882812 45.570312 21.960938 44.820312 22.023438 44.070312 C 21.921875 43.078125 22.070312 42.101562 22.257812 41.125 L 22.242188 40.578125 C 22.242188 40.550781 22.234375 40.535156 22.234375 40.539062 C 22.109375 40.570312 22.316406 40.433594 22.339844 40.695312 L 22.40625 40.347656 L 22.40625 44.859375 L 22.445312 46.441406 C 22.46875 48.359375 22.347656 48.53125 20.523438 49.078125 C 20.019531 49.226562 19.492188 49.3125 18.992188 49.484375 C 18.632812 49.609375 18.171875 49.542969 17.832031 49.96875 C 19.316406 49.910156 20.707031 50.078125 22.089844 49.855469 C 23.519531 49.625 24.085938 49.046875 24.378906 47.652344 C 24.59375 46.636719 24.691406 45.574219 25.074219 44.527344 C 25.132812 44.640625 25.175781 44.683594 25.1875 44.75 L 25.773438 47.660156 C 26.039062 49.015625 26.589844 49.59375 27.960938 49.835938 C 29.386719 50.078125 30.828125 49.914062 32.304688 49.945312 C 32.09375 49.585938 31.761719 49.644531 31.496094 49.566406 C 30.578125 49.300781 29.644531 49.070312 28.746094 48.761719 C 28.089844 48.535156 27.621094 48.117188 27.628906 47.3125 L 27.636719 40.699219 L 27.90625 40.699219 L 28.1875 44.839844 C 28.355469 48.035156 28.734375 48.382812 31.9375 48.207031 C 32.117188 47.90625 32.5625 48.140625 32.730469 47.820312 C 31.960938 47.816406 31.289062 47.445312 30.582031 47.207031 C 30.1875 47.074219 29.964844 46.71875 29.972656 46.269531 C 30.007812 44.007812 29.921875 41.734375 30.226562 39.480469 L 30.703125 45.164062 C 30.773438 46.050781 31.171875 46.746094 32.109375 46.804688 C 33.359375 46.882812 34.628906 46.828125 35.890625 46.828125 C 35.222656 46.492188 34.539062 46.292969 33.859375 46.078125 C 32.316406 45.582031 32.328125 45.578125 32.46875 44.011719 Z M 22.773438 11.753906 C 22.765625 12.386719 22.257812 12.894531 21.628906 12.898438 C 20.953125 12.914062 20.445312 12.523438 20.429688 11.648438 C 20.503906 11.011719 20.859375 10.574219 21.617188 10.558594 C 22.421875 10.546875 22.785156 11.089844 22.769531 11.753906 Z M 27.945312 30.582031 C 27.949219 32.324219 26.617188 33.84375 25.089844 33.839844 C 23.652344 33.835938 22.183594 32.140625 22.238281 30.539062 L 21.96875 28.921875 C 23 29.625 23.863281 30.34375 25.023438 30.367188 C 26.207031 30.390625 27.136719 29.78125 28.105469 29.074219 C 28.308594 29.640625 27.789062 30.085938 27.945312 30.578125 Z M 27.945312 30.582031 "/>
<path style=" stroke:none;fill-rule:nonzero;fill:rgb(70.980392%,82.352941%,95.294118%);fill-opacity:1;" d="M 17.042969 34.359375 L 16.792969 34.261719 C 15.621094 33.777344 14.59375 33.039062 13.648438 32.214844 C 10.230469 29.261719 7.976562 25.566406 7.429688 21.082031 C 6.808594 15.984375 7.949219 11.28125 11.351562 7.238281 C 14.453125 3.554688 18.410156 1.40625 23.132812 0.910156 C 28.378906 0.363281 33.089844 1.832031 37.058594 5.457031 C 40.371094 8.476562 42.292969 12.222656 42.796875 16.625 C 43.21875 20.375 42.542969 23.996094 40.613281 27.289062 C 38.863281 30.28125 36.53125 32.710938 33.375 34.246094 L 33.117188 34.371094 C 32.996094 34.699219 32.890625 35.023438 33.09375 35.359375 C 33.167969 35.296875 33.234375 35.214844 33.320312 35.167969 C 38.085938 32.644531 41.390625 28.894531 42.933594 23.679688 C 43.066406 23.238281 43.273438 23.015625 43.769531 23.070312 C 44.441406 23.136719 44.628906 22.691406 44.628906 22.132812 L 44.632812 15.691406 C 44.632812 15.222656 44.523438 14.722656 44.042969 14.671875 C 43.164062 14.570312 43.058594 13.925781 42.882812 13.304688 C 41.839844 9.671875 39.859375 6.640625 36.890625 4.320312 C 30.820312 -0.445312 24.160156 -1.304688 17.167969 1.914062 C 11.980469 4.304688 8.671875 8.449219 7.175781 13.996094 C 7.082031 14.339844 7.121094 14.75 6.539062 14.621094 C 5.703125 14.449219 5.390625 14.941406 5.382812 15.679688 L 5.378906 22.121094 C 5.378906 22.835938 5.742188 23.214844 6.429688 23.046875 C 7.054688 22.890625 7.214844 23.203125 7.34375 23.6875 C 7.902344 25.742188 8.835938 27.625 10.101562 29.34375 C 11.953125 31.851562 14.207031 33.875 17.074219 35.148438 L 17.042969 34.34375 Z M 17.042969 34.359375 "/>
<path style=" stroke:none;fill-rule:nonzero;fill:rgb(99.607843%,40.784314%,29.411765%);fill-opacity:1;" d="M 17.046875 35.6875 C 16.410156 37.472656 14.714844 37.429688 13.273438 37.875 C 14.355469 38.15625 15.460938 38.476562 16.542969 38.292969 C 17.1875 38.183594 17.3125 38.414062 17.40625 38.796875 L 17.429688 38.886719 L 17.445312 38.964844 C 17.363281 37.859375 17.308594 36.757812 17.046875 35.683594 Z M 17.046875 35.6875 "/>
<path style=" stroke:none;fill-rule:nonzero;fill:rgb(99.607843%,39.215686%,27.45098%);fill-opacity:1;" d="M 32.933594 38.070312 C 34.3125 38.695312 35.609375 38.066406 36.941406 37.886719 C 35.640625 37.335938 33.957031 37.617188 33.273438 35.945312 C 32.546875 36.554688 33.117188 37.375 32.933594 38.070312 Z M 32.933594 38.070312 "/>
<path style=" stroke:none;fill-rule:nonzero;fill:rgb(99.607843%,83.921569%,78.431373%);fill-opacity:1;" d="M 22.410156 40.359375 L 22.339844 40.707031 L 22.257812 41.125 C 22.074219 42.101562 21.921875 43.078125 22.027344 44.074219 C 22.351562 44.242188 22.105469 44.683594 22.417969 44.867188 L 22.417969 40.359375 Z M 22.410156 40.359375 "/>
<path style=" stroke:none;fill-rule:nonzero;fill:rgb(99.607843%,92.156863%,89.019608%);fill-opacity:1;" d="M 19.882812 38.785156 L 19.652344 42.882812 L 20.050781 42.679688 L 20.050781 38.785156 Z M 19.882812 38.785156 "/>
<path style=" stroke:none;fill-rule:nonzero;fill:rgb(99.607843%,56.862745%,40%);fill-opacity:1;" d="M 15.839844 48.226562 L 18.058594 48.226562 L 17.9375 48.144531 L 17.449219 47.816406 C 16.960938 47.792969 16.503906 47.898438 15.839844 48.226562 Z M 15.839844 48.226562 "/>
<path style=" stroke:none;fill-rule:nonzero;fill:rgb(99.607843%,56.078431%,39.215686%);fill-opacity:1;" d="M 31.945312 48.226562 L 34.105469 48.226562 C 33.664062 47.972656 33.234375 47.757812 32.734375 47.839844 C 32.566406 48.167969 32.121094 47.917969 31.945312 48.226562 Z M 31.945312 48.226562 "/>
<path style=" stroke:none;fill-rule:nonzero;fill:rgb(88.627451%,96.078431%,98.823529%);fill-opacity:1;" d="M 33.378906 34.234375 C 36.53125 32.703125 38.863281 30.273438 40.617188 27.277344 C 42.546875 23.984375 43.222656 20.363281 42.800781 16.613281 C 42.304688 12.207031 40.375 8.460938 37.0625 5.453125 C 33.09375 1.824219 28.378906 0.355469 23.140625 0.90625 C 18.421875 1.394531 14.464844 3.546875 11.359375 7.234375 C 7.949219 11.273438 6.8125 15.976562 7.433594 21.074219 C 7.980469 25.5625 10.234375 29.253906 13.652344 32.207031 C 14.601562 33.03125 15.621094 33.773438 16.796875 34.253906 C 16.878906 34.285156 16.953125 34.320312 17.046875 34.351562 C 17.101562 33.21875 16.96875 32.101562 16.84375 30.976562 L 16.585938 30.792969 C 15.710938 30.167969 14.964844 29.378906 14.210938 28.613281 C 13.984375 28.382812 13.699219 28.183594 13.699219 27.804688 C 13.191406 28.167969 12.824219 27.914062 12.527344 27.511719 C 10.875 25.253906 9.875 22.753906 9.742188 19.933594 C 9.621094 17.445312 9.84375 15.027344 10.890625 12.699219 C 12.21875 9.742188 14.265625 7.480469 17.011719 5.804688 C 17.476562 5.519531 17.742188 5.773438 18.066406 5.984375 C 18.378906 5.953125 18.660156 5.84375 18.863281 5.585938 L 18.824219 5.496094 C 18.546875 4.914062 18.535156 4.257812 19.199219 4.101562 C 19.867188 3.941406 20.246094 4.492188 20.25 5.1875 C 25.226562 3.558594 29.859375 4.222656 34.039062 7.410156 C 37.164062 9.792969 38.953125 12.992188 39.507812 16.890625 C 40.214844 21.90625 38.519531 26.0625 35.023438 29.578125 C 34.609375 29.992188 34.144531 30.367188 33.621094 30.648438 C 33.53125 30.691406 33.441406 30.738281 33.347656 30.78125 C 33.132812 31.964844 33.121094 33.160156 33.132812 34.355469 L 33.382812 34.230469 Z M 33.378906 34.234375 "/>
<path style=" stroke:none;fill-rule:nonzero;fill:rgb(80.392157%,92.54902%,96.470588%);fill-opacity:1;" d="M 35.015625 29.59375 C 38.507812 26.078125 40.203125 21.917969 39.5 16.90625 C 38.953125 13.003906 37.164062 9.796875 34.03125 7.425781 C 29.859375 4.226562 25.214844 3.570312 20.25 5.199219 C 20.242188 5.203125 20.234375 5.214844 20.222656 5.21875 C 19.832031 5.46875 19.527344 6.003906 18.964844 5.667969 C 18.929688 5.648438 18.898438 5.628906 18.863281 5.605469 C 18.660156 5.863281 18.386719 5.96875 18.066406 6 C 18.054688 6.050781 18.035156 6.097656 18.019531 6.152344 C 17.664062 7.152344 16.589844 7.417969 15.871094 8.027344 C 13.921875 9.65625 12.476562 11.621094 11.625 13.980469 C 10.253906 17.792969 10.535156 21.527344 12.367188 25.136719 C 12.664062 25.722656 13.03125 26.277344 13.421875 26.804688 C 13.640625 27.09375 13.738281 27.453125 13.699219 27.808594 C 13.699219 28.195312 13.984375 28.398438 14.210938 28.628906 C 14.96875 29.394531 15.714844 30.175781 16.585938 30.808594 L 16.84375 30.992188 L 16.644531 25.855469 C 15.148438 24.875 14.054688 23.625 13.863281 21.765625 C 13.628906 19.472656 14.589844 17.777344 16.46875 16.539062 C 16.476562 16.535156 16.484375 16.527344 16.496094 16.523438 C 16.421875 15.316406 16.652344 14.164062 17.085938 13.050781 C 18.511719 9.320312 22.839844 6.875 26.410156 7.769531 C 28.789062 8.15625 30.734375 9.238281 32.128906 11.222656 C 33.242188 12.808594 33.820312 14.5625 33.691406 16.515625 C 35.035156 17.535156 36.117188 18.730469 36.296875 20.5 C 36.53125 22.882812 35.515625 24.621094 33.515625 25.832031 L 33.515625 25.855469 L 33.316406 30.792969 C 33.410156 30.75 33.5 30.714844 33.585938 30.660156 C 34.121094 30.378906 34.585938 30.007812 35 29.589844 Z M 35.015625 29.59375 "/>
<path style=" stroke:none;fill-rule:nonzero;fill:rgb(99.607843%,41.960784%,23.529412%);fill-opacity:1;" d="M 29.210938 16.320312 C 30.695312 15.59375 32.121094 15.984375 33.546875 16.453125 L 33.703125 16.507812 C 33.824219 14.546875 33.25 12.796875 32.140625 11.210938 C 30.746094 9.226562 28.800781 8.148438 26.433594 7.765625 C 26.070312 7.832031 25.675781 7.6875 25.242188 7.9375 C 28.152344 10.371094 28.554688 13.496094 27.980469 16.902344 L 29.21875 16.320312 Z M 29.210938 16.320312 "/>
<path style=" stroke:none;fill-rule:nonzero;fill:rgb(99.607843%,38.039216%,25.882353%);fill-opacity:1;" d="M 36.3125 20.496094 C 36.136719 18.726562 35.050781 17.53125 33.707031 16.511719 L 33.550781 16.460938 C 32.121094 15.992188 30.691406 15.597656 29.214844 16.328125 L 28.246094 16.796875 L 27.980469 16.921875 L 27.332031 17.660156 C 25.9375 19.019531 25.746094 20.703125 26.113281 22.484375 C 26.679688 25.203125 29.992188 27.460938 33.511719 25.851562 C 33.515625 25.847656 33.527344 25.847656 33.53125 25.84375 C 35.53125 24.625 36.550781 22.875 36.3125 20.507812 Z M 31.046875 25.253906 C 28.761719 25.234375 26.980469 23.417969 27 21.125 C 27.023438 18.867188 28.875 17.074219 31.144531 17.09375 C 33.433594 17.109375 35.1875 18.914062 35.167969 21.230469 C 35.152344 23.527344 33.363281 25.277344 31.046875 25.253906 Z M 31.046875 25.253906 "/>
<path style=" stroke:none;fill-rule:nonzero;fill:rgb(99.607843%,38.039216%,26.27451%);fill-opacity:1;" d="M 16.464844 16.523438 C 14.589844 17.757812 13.625 19.453125 13.863281 21.75 C 14.050781 23.609375 15.144531 24.855469 16.632812 25.832031 C 17.53125 26.101562 18.414062 26.253906 19.359375 26.242188 C 22.5625 26.195312 24.992188 22.914062 24.085938 19.808594 C 23.226562 16.824219 20.035156 14.867188 16.507812 16.507812 C 16.488281 16.511719 16.480469 16.519531 16.472656 16.523438 Z M 19.03125 25.253906 C 16.6875 25.261719 14.871094 23.460938 14.878906 21.128906 C 14.882812 18.839844 16.667969 17.066406 18.972656 17.054688 C 21.300781 17.039062 23.160156 18.875 23.152344 21.164062 C 23.144531 23.414062 21.296875 25.242188 19.035156 25.25 Z M 19.03125 25.253906 "/>
<path style=" stroke:none;fill-rule:nonzero;fill:rgb(2.745098%,3.529412%,3.529412%);fill-opacity:1;" d="M 22.78125 30.917969 C 22.621094 30.757812 22.503906 30.542969 22.238281 30.539062 C 22.1875 32.140625 23.652344 33.835938 25.09375 33.839844 C 26.621094 33.84375 27.949219 32.324219 27.945312 30.582031 C 27.371094 30.878906 27.003906 31.488281 26.339844 31.671875 C 25.011719 32.03125 23.804688 31.941406 22.78125 30.917969 Z M 22.78125 30.917969 "/>
<path style=" stroke:none;fill-rule:nonzero;fill:rgb(99.215686%,98.823529%,98.431373%);fill-opacity:1;" d="M 28.105469 29.074219 C 27.136719 29.777344 26.210938 30.390625 25.023438 30.371094 C 23.859375 30.347656 22.992188 29.625 21.972656 28.925781 L 22.238281 30.539062 C 22.503906 30.546875 22.628906 30.757812 22.78125 30.917969 C 23.800781 31.933594 25.019531 32.03125 26.339844 31.671875 C 27.003906 31.492188 27.367188 30.882812 27.945312 30.582031 C 27.789062 30.085938 28.3125 29.644531 28.105469 29.074219 Z M 28.105469 29.074219 "/>
<path style=" stroke:none;fill-rule:nonzero;fill:rgb(99.607843%,65.490196%,46.666667%);fill-opacity:1;" d="M 21.617188 10.5625 C 20.855469 10.574219 20.5 11.011719 20.429688 11.652344 C 20.445312 12.53125 20.953125 12.914062 21.628906 12.902344 C 22.257812 12.898438 22.765625 12.390625 22.773438 11.757812 C 22.785156 11.085938 22.425781 10.546875 21.621094 10.5625 Z M 21.617188 10.5625 "/>
<path style=" stroke:none;fill-rule:nonzero;fill:rgb(99.215686%,99.607843%,99.607843%);fill-opacity:1;" d="M 13.691406 27.796875 C 13.730469 27.441406 13.632812 27.082031 13.414062 26.792969 C 13.027344 26.265625 12.65625 25.710938 12.359375 25.125 C 10.527344 21.515625 10.25 17.78125 11.617188 13.96875 C 12.476562 11.601562 13.914062 9.648438 15.863281 8.015625 C 16.582031 7.414062 17.65625 7.152344 18.011719 6.140625 C 18.03125 6.09375 18.046875 6.039062 18.058594 5.988281 C 17.738281 5.777344 17.46875 5.523438 17.003906 5.808594 C 14.257812 7.488281 12.214844 9.746094 10.882812 12.703125 C 9.835938 15.03125 9.613281 17.453125 9.734375 19.9375 C 9.875 22.75 10.867188 25.253906 12.519531 27.515625 C 12.816406 27.921875 13.1875 28.175781 13.691406 27.808594 Z M 13.691406 27.796875 "/>
<path style=" stroke:none;fill-rule:nonzero;fill:rgb(98.431373%,99.215686%,99.607843%);fill-opacity:1;" d="M 20.210938 5.21875 C 20.21875 5.214844 20.226562 5.203125 20.238281 5.199219 C 20.230469 4.5 19.847656 3.957031 19.1875 4.117188 C 18.527344 4.273438 18.535156 4.933594 18.8125 5.511719 L 18.851562 5.601562 C 18.882812 5.625 18.914062 5.644531 18.949219 5.664062 C 19.515625 6.003906 19.820312 5.460938 20.210938 5.21875 Z M 20.210938 5.21875 "/>
<path style=" stroke:none;fill-rule:nonzero;fill:rgb(99.607843%,99.607843%,99.607843%);fill-opacity:1;" d="M 35.171875 21.234375 C 35.1875 18.921875 33.4375 17.117188 31.148438 17.097656 C 28.867188 17.078125 27.023438 18.871094 27.003906 21.128906 C 26.980469 22.214844 27.398438 23.265625 28.160156 24.042969 C 28.921875 24.820312 29.960938 25.257812 31.050781 25.257812 C 33.367188 25.273438 35.15625 23.527344 35.171875 21.234375 Z M 31.25 21.679688 C 30.476562 21.695312 30.023438 21.253906 29.953125 20.492188 C 29.890625 19.789062 30.527344 19.121094 31.234375 19.167969 C 31.992188 19.222656 32.417969 19.667969 32.507812 20.457031 C 32.402344 21.164062 32.042969 21.667969 31.257812 21.679688 Z M 18.972656 17.058594 C 16.667969 17.070312 14.886719 18.84375 14.878906 21.132812 C 14.875 23.464844 16.683594 25.273438 19.03125 25.257812 C 21.292969 25.25 23.140625 23.417969 23.148438 21.171875 C 23.152344 18.878906 21.292969 17.046875 18.96875 17.058594 Z M 18.976562 21.679688 C 18.210938 21.6875 17.75 21.25 17.6875 20.480469 C 17.632812 19.777344 18.273438 19.109375 18.984375 19.171875 C 19.734375 19.234375 20.171875 19.671875 20.234375 20.460938 C 20.140625 21.1875 19.742188 21.671875 18.96875 21.679688 Z M 18.976562 21.679688 "/>
<path style=" stroke:none;fill-rule:nonzero;fill:rgb(3.529412%,4.313725%,4.313725%);fill-opacity:1;" d="M 31.234375 19.167969 C 30.527344 19.117188 29.890625 19.777344 29.957031 20.492188 C 30.023438 21.257812 30.476562 21.695312 31.25 21.679688 C 32.039062 21.667969 32.40625 21.164062 32.5 20.457031 C 32.410156 19.664062 31.984375 19.222656 31.226562 19.167969 Z M 31.234375 19.167969 "/>
<path style=" stroke:none;fill-rule:nonzero;fill:rgb(3.529412%,4.705882%,4.705882%);fill-opacity:1;" d="M 18.984375 19.171875 C 18.28125 19.113281 17.632812 19.769531 17.6875 20.480469 C 17.75 21.25 18.210938 21.691406 18.976562 21.679688 C 19.75 21.671875 20.148438 21.191406 20.242188 20.460938 C 20.167969 19.664062 19.730469 19.230469 18.992188 19.171875 Z M 18.984375 19.171875 "/>
</g>
</svg>
