<?xml version="1.0" encoding="UTF-8"?>
<svg xmlns="http://www.w3.org/2000/svg" xmlns:xlink="http://www.w3.org/1999/xlink" width="50px" height="px" viewBox="0 0 50 50" version="1.1">
<g id="surface1">
<path style=" stroke:none;fill-rule:nonzero;fill:rgb(100%,100%,100%);fill-opacity:1;" d="M 14.089844 20.910156 C 14.089844 21.523438 14.15625 22.023438 14.273438 22.386719 C 14.40625 22.753906 14.574219 23.152344 14.804688 23.585938 C 14.890625 23.71875 14.921875 23.851562 14.921875 23.96875 C 14.921875 24.136719 14.824219 24.300781 14.605469 24.46875 L 13.558594 25.167969 C 13.433594 25.257812 13.28125 25.308594 13.125 25.316406 C 12.957031 25.316406 12.792969 25.234375 12.628906 25.082031 C 12.402344 24.84375 12.203125 24.582031 12.027344 24.300781 C 11.84375 23.984375 11.671875 23.65625 11.511719 23.320312 C 10.214844 24.851562 8.585938 25.613281 6.621094 25.613281 C 5.226562 25.613281 4.113281 25.214844 3.296875 24.417969 C 2.484375 23.617188 2.070312 22.554688 2.070312 21.226562 C 2.070312 19.8125 2.566406 18.664062 3.582031 17.800781 C 4.597656 16.933594 5.941406 16.503906 7.652344 16.503906 C 8.222656 16.503906 8.800781 16.550781 9.417969 16.636719 C 10.035156 16.71875 10.667969 16.851562 11.328125 17.003906 L 11.328125 15.789062 C 11.328125 14.523438 11.066406 13.640625 10.546875 13.128906 C 10.015625 12.609375 9.117188 12.363281 7.839844 12.363281 C 7.257812 12.363281 6.65625 12.425781 6.042969 12.578125 C 5.425781 12.726562 4.828125 12.910156 4.246094 13.144531 C 4.054688 13.230469 3.863281 13.300781 3.664062 13.359375 C 3.578125 13.386719 3.488281 13.402344 3.398438 13.410156 C 3.164062 13.410156 3.046875 13.242188 3.046875 12.894531 L 3.046875 12.078125 C 3.046875 11.8125 3.082031 11.613281 3.164062 11.496094 C 3.289062 11.34375 3.449219 11.226562 3.632812 11.148438 C 4.296875 10.816406 5 10.566406 5.726562 10.398438 C 6.574219 10.179688 7.445312 10.074219 8.320312 10.082031 C 10.300781 10.082031 11.746094 10.535156 12.675781 11.429688 C 13.589844 12.328125 14.054688 13.691406 14.054688 15.519531 L 14.054688 20.910156 Z M 7.339844 23.4375 C 7.886719 23.4375 8.453125 23.335938 9.050781 23.136719 C 9.660156 22.925781 10.207031 22.558594 10.632812 22.074219 C 10.898438 21.769531 11.09375 21.402344 11.199219 21.007812 C 11.296875 20.609375 11.363281 20.128906 11.363281 19.5625 L 11.363281 18.863281 C 10.859375 18.742188 10.347656 18.648438 9.832031 18.582031 C 9.316406 18.515625 8.792969 18.480469 8.269531 18.480469 C 7.15625 18.480469 6.339844 18.699219 5.792969 19.148438 C 5.242188 19.597656 4.980469 20.226562 4.980469 21.058594 C 4.980469 21.839844 5.175781 22.421875 5.59375 22.820312 C 5.992188 23.238281 6.574219 23.4375 7.339844 23.4375 Z M 20.695312 25.234375 C 20.394531 25.234375 20.195312 25.183594 20.058594 25.066406 C 19.925781 24.964844 19.808594 24.734375 19.710938 24.417969 L 15.804688 11.5625 C 15.726562 11.347656 15.679688 11.125 15.652344 10.894531 C 15.652344 10.628906 15.789062 10.480469 16.050781 10.480469 L 17.683594 10.480469 C 17.996094 10.480469 18.214844 10.53125 18.328125 10.644531 C 18.464844 10.746094 18.566406 10.980469 18.664062 11.296875 L 21.457031 22.304688 L 24.050781 11.296875 C 24.136719 10.960938 24.234375 10.746094 24.367188 10.644531 C 24.566406 10.523438 24.800781 10.464844 25.035156 10.480469 L 26.363281 10.480469 C 26.679688 10.480469 26.894531 10.53125 27.027344 10.644531 C 27.160156 10.746094 27.277344 10.980469 27.34375 11.296875 L 29.972656 22.4375 L 32.847656 11.296875 C 32.949219 10.960938 33.066406 10.746094 33.179688 10.644531 C 33.375 10.523438 33.601562 10.464844 33.828125 10.480469 L 35.378906 10.480469 C 35.640625 10.480469 35.792969 10.613281 35.792969 10.894531 C 35.792969 10.980469 35.773438 11.0625 35.757812 11.164062 C 35.730469 11.304688 35.691406 11.445312 35.640625 11.578125 L 31.636719 24.433594 C 31.535156 24.765625 31.417969 24.980469 31.285156 25.082031 C 31.097656 25.203125 30.875 25.261719 30.652344 25.246094 L 29.222656 25.246094 C 28.910156 25.246094 28.691406 25.199219 28.554688 25.082031 C 28.425781 24.964844 28.308594 24.746094 28.242188 24.414062 L 25.664062 13.691406 L 23.101562 24.398438 C 23.019531 24.730469 22.921875 24.949219 22.789062 25.066406 C 22.652344 25.179688 22.421875 25.230469 22.121094 25.230469 Z M 42.058594 25.679688 C 41.195312 25.679688 40.332031 25.582031 39.5 25.382812 C 38.667969 25.183594 38.019531 24.964844 37.585938 24.714844 C 37.320312 24.570312 37.140625 24.402344 37.074219 24.253906 C 37.007812 24.105469 36.972656 23.945312 36.972656 23.785156 L 36.972656 22.9375 C 36.972656 22.589844 37.105469 22.421875 37.355469 22.421875 C 37.453125 22.421875 37.554688 22.441406 37.652344 22.472656 C 37.753906 22.507812 37.902344 22.574219 38.070312 22.640625 C 38.636719 22.890625 39.25 23.085938 39.898438 23.222656 C 40.566406 23.355469 41.210938 23.421875 41.878906 23.421875 C 42.925781 23.421875 43.742188 23.238281 44.304688 22.871094 C 44.855469 22.539062 45.1875 21.933594 45.171875 21.292969 C 45.183594 20.859375 45.023438 20.441406 44.722656 20.128906 C 44.421875 19.8125 43.855469 19.527344 43.042969 19.261719 L 40.632812 18.511719 C 39.417969 18.132812 38.519531 17.566406 37.972656 16.820312 C 37.433594 16.128906 37.140625 15.28125 37.136719 14.40625 C 37.136719 13.707031 37.289062 13.09375 37.585938 12.558594 C 37.886719 12.027344 38.285156 11.5625 38.785156 11.199219 C 39.285156 10.816406 39.847656 10.53125 40.515625 10.332031 C 41.179688 10.132812 41.878906 10.050781 42.609375 10.050781 C 42.976562 10.050781 43.359375 10.066406 43.726562 10.117188 C 44.105469 10.167969 44.453125 10.234375 44.804688 10.300781 C 45.136719 10.382812 45.453125 10.464844 45.753906 10.566406 C 46.050781 10.664062 46.285156 10.765625 46.453125 10.863281 C 46.648438 10.964844 46.820312 11.105469 46.953125 11.28125 C 47.058594 11.441406 47.113281 11.636719 47.101562 11.828125 L 47.101562 12.609375 C 47.101562 12.960938 46.964844 13.144531 46.714844 13.144531 C 46.496094 13.117188 46.28125 13.050781 46.085938 12.945312 C 45.082031 12.5 43.992188 12.277344 42.894531 12.296875 C 41.945312 12.296875 41.195312 12.445312 40.679688 12.761719 C 40.164062 13.078125 39.898438 13.558594 39.898438 14.238281 C 39.898438 14.707031 40.066406 15.105469 40.398438 15.421875 C 40.730469 15.738281 41.347656 16.054688 42.226562 16.335938 L 44.589844 17.082031 C 45.785156 17.464844 46.652344 18 47.167969 18.679688 C 47.679688 19.363281 47.929688 20.144531 47.929688 21.007812 C 47.929688 21.722656 47.78125 22.371094 47.5 22.9375 C 47.203125 23.507812 46.789062 24.007812 46.285156 24.402344 C 45.769531 24.820312 45.152344 25.117188 44.441406 25.332031 C 43.691406 25.566406 42.910156 25.679688 42.058594 25.679688 Z M 45.203125 33.765625 C 39.734375 37.804688 31.785156 39.949219 24.949219 39.949219 C 15.371094 39.949219 6.742188 36.410156 0.222656 30.519531 C -0.292969 30.054688 0.171875 29.421875 0.789062 29.789062 C 7.835938 33.878906 16.535156 36.359375 25.53125 36.359375 C 31.601562 36.359375 38.269531 35.09375 44.40625 32.5 C 45.320312 32.082031 46.101562 33.097656 45.203125 33.765625 Z M 47.484375 31.167969 C 46.785156 30.273438 42.859375 30.738281 41.078125 30.953125 C 40.546875 31.019531 40.464844 30.554688 40.949219 30.203125 C 44.074219 28.011719 49.210938 28.640625 49.808594 29.371094 C 50.410156 30.121094 49.644531 35.261719 46.714844 37.722656 C 46.269531 38.105469 45.835938 37.902344 46.035156 37.40625 C 46.703125 35.761719 48.179688 32.050781 47.484375 31.167969 Z M 47.484375 31.167969 "/>
</g>
</svg>
