<?xml version="1.0" encoding="UTF-8"?>
<svg xmlns="http://www.w3.org/2000/svg" xmlns:xlink="http://www.w3.org/1999/xlink" width="50px" height="50px" viewBox="0 0 50 50" version="1.1">
<g id="surface1">
<path style=" stroke:none;fill-rule:nonzero;fill:rgb(100%,100%,100%);fill-opacity:1;" d="M 29.132812 23.078125 L 33.546875 23.078125 L 33.933594 18.761719 L 29.132812 18.375 L 28.746094 22.695312 C 28.746094 22.90625 28.917969 23.078125 29.132812 23.078125 M 22.976562 11.765625 L 27.390625 11.765625 L 27.777344 7.445312 L 22.976562 7.058594 L 22.589844 11.378906 C 22.589844 11.589844 22.761719 11.765625 22.976562 11.765625 M 22.976562 17.421875 L 27.390625 17.421875 L 27.777344 13.105469 L 22.976562 12.71875 L 22.589844 17.035156 C 22.589844 17.246094 22.761719 17.421875 22.976562 17.421875 M 16.871094 17.421875 L 21.289062 17.421875 L 21.671875 13.105469 L 16.875 12.71875 L 16.488281 17.035156 C 16.488281 17.246094 16.664062 17.421875 16.875 17.421875 M 10.699219 17.421875 L 15.113281 17.421875 L 15.5 13.105469 L 10.699219 12.71875 L 10.3125 17.035156 C 10.3125 17.246094 10.488281 17.421875 10.699219 17.421875 M 22.976562 23.078125 L 27.390625 23.078125 L 27.777344 18.761719 L 22.976562 18.375 L 22.589844 22.695312 C 22.589844 22.90625 22.761719 23.078125 22.976562 23.078125 M 16.871094 23.078125 L 21.289062 23.078125 L 21.671875 18.761719 L 16.871094 18.375 L 16.488281 22.695312 C 16.488281 22.90625 16.664062 23.078125 16.875 23.078125 M 10.699219 23.078125 L 15.113281 23.078125 L 15.5 18.761719 L 10.699219 18.375 L 10.3125 22.695312 C 10.3125 22.90625 10.488281 23.078125 10.699219 23.078125 M 4.617188 23.078125 L 9.035156 23.078125 L 9.417969 18.761719 L 4.617188 18.375 L 4.234375 22.695312 C 4.234375 22.90625 4.402344 23.078125 4.617188 23.078125 M 49.507812 20.605469 C 49.371094 20.496094 48.105469 19.542969 45.433594 19.542969 C 44.730469 19.542969 44.027344 19.605469 43.332031 19.722656 C 42.816406 16.179688 39.886719 14.453125 39.757812 14.378906 L 39.039062 13.960938 L 38.570312 14.644531 C 37.976562 15.554688 37.546875 16.566406 37.292969 17.621094 C 36.816406 19.644531 37.105469 21.542969 38.132812 23.167969 C 36.894531 23.859375 34.902344 24.027344 34.5 24.042969 L 1.566406 24.042969 C 0.703125 24.042969 0.00390625 24.738281 0.00390625 25.601562 C -0.0351562 28.484375 0.453125 31.351562 1.445312 34.0625 C 2.578125 37.039062 4.265625 39.230469 6.464844 40.570312 C 8.921875 42.078125 12.921875 42.941406 17.453125 42.941406 C 19.503906 42.945312 21.542969 42.761719 23.558594 42.386719 C 26.355469 41.871094 29.046875 40.894531 31.523438 39.492188 C 33.566406 38.308594 35.398438 36.808594 36.960938 35.042969 C 39.570312 32.085938 41.121094 28.796875 42.277344 25.875 L 42.738281 25.875 C 45.597656 25.875 47.355469 24.730469 48.324219 23.773438 C 48.964844 23.164062 49.46875 22.417969 49.796875 21.59375 L 50 20.992188 Z M 49.507812 20.605469 "/>
</g>
</svg>
