<?xml version="1.0" encoding="UTF-8"?>
<svg xmlns="http://www.w3.org/2000/svg" xmlns:xlink="http://www.w3.org/1999/xlink" width="50px" height="px" viewBox="0 0 50 50" version="1.1">
<g id="surface1">
<path style=" stroke:none;fill-rule:nonzero;fill:rgb(100%,100%,100%);fill-opacity:1;" d="M 27.902344 0 C 18.089844 0 9.601562 5.660156 5.507812 13.890625 L 38.09375 13.890625 C 40.433594 13.894531 42.699219 13.078125 44.496094 11.578125 C 45.425781 10.796875 46.296875 9.941406 47.09375 8.988281 L 47.097656 8.984375 C 42.351562 3.285156 35.320312 -0.0078125 27.902344 0 Z M 3.757812 18.519531 C 2.621094 22.765625 2.621094 27.234375 3.757812 31.480469 L 34.382812 31.480469 C 37.960938 31.480469 40.863281 28.578125 40.863281 25 C 40.863281 21.421875 37.960938 18.519531 34.382812 18.519531 Z M 5.507812 36.109375 C 9.605469 44.339844 18.089844 50 27.90625 50 C 35.617188 50 42.511719 46.507812 47.097656 41.015625 L 47.097656 41.011719 C 46.308594 40.074219 45.4375 39.207031 44.496094 38.421875 C 42.703125 36.921875 40.4375 36.105469 38.097656 36.109375 Z M 5.507812 36.109375 "/>
</g>
</svg>
