<?xml version="1.0" encoding="UTF-8"?>
<svg xmlns="http://www.w3.org/2000/svg" xmlns:xlink="http://www.w3.org/1999/xlink" width="50px" height="px" viewBox="0 0 50 49" version="1.1">
<g id="surface1">
<path style=" stroke:none;fill-rule:evenodd;fill:rgb(100%,100%,100%);fill-opacity:1;" d="M 24.925781 0 C 11.140625 0 0 11.230469 0 25.121094 C 0 36.226562 7.140625 45.625 17.042969 48.953125 C 18.28125 49.203125 18.734375 48.410156 18.734375 47.746094 C 18.734375 47.164062 18.695312 45.167969 18.695312 43.089844 C 11.761719 44.585938 10.316406 40.09375 10.316406 40.09375 C 9.203125 37.183594 7.550781 36.433594 7.550781 36.433594 C 5.28125 34.894531 7.71875 34.894531 7.71875 34.894531 C 10.234375 35.0625 11.554688 37.472656 11.554688 37.472656 C 13.78125 41.300781 17.375 40.21875 18.816406 39.554688 C 19.023438 37.929688 19.683594 36.808594 20.386719 36.183594 C 14.855469 35.601562 9.039062 33.4375 9.039062 23.789062 C 9.039062 21.046875 10.027344 18.800781 11.597656 17.050781 C 11.347656 16.429688 10.480469 13.851562 11.84375 10.398438 C 11.84375 10.398438 13.949219 9.730469 18.695312 12.976562 C 20.726562 12.425781 22.820312 12.148438 24.925781 12.144531 C 27.03125 12.144531 29.175781 12.4375 31.15625 12.976562 C 35.902344 9.730469 38.007812 10.398438 38.007812 10.398438 C 39.371094 13.851562 38.503906 16.429688 38.253906 17.050781 C 39.863281 18.800781 40.8125 21.046875 40.8125 23.789062 C 40.8125 33.4375 34.996094 35.558594 29.421875 36.183594 C 30.332031 36.972656 31.117188 38.472656 31.117188 40.84375 C 31.117188 44.210938 31.074219 46.914062 31.074219 47.746094 C 31.074219 48.410156 31.527344 49.203125 32.765625 48.953125 C 42.671875 45.625 49.808594 36.226562 49.808594 25.121094 C 49.851562 11.230469 38.667969 0 24.925781 0 Z M 24.925781 0 "/>
</g>
</svg>
