<?xml version="1.0" encoding="UTF-8"?>
<svg xmlns="http://www.w3.org/2000/svg" xmlns:xlink="http://www.w3.org/1999/xlink" width="50px" height="px" viewBox="0 0 50 50" version="1.1">
<g id="surface1">
<path style=" stroke:none;fill-rule:nonzero;fill:rgb(99.607843%,49.019608%,21.568627%);fill-opacity:1;" d="M 47.957031 22.0625 C 47.753906 19.863281 47.148438 17.71875 46.164062 15.742188 C 45.21875 13.84375 43.960938 12.121094 42.433594 10.648438 C 43.136719 7.851562 41.574219 5.429688 41.574219 5.429688 C 38.882812 5.261719 37.171875 6.261719 36.542969 6.722656 C 36.433594 6.679688 36.328125 6.628906 36.222656 6.585938 C 35.761719 6.402344 35.292969 6.230469 34.808594 6.074219 C 34.328125 5.921875 33.832031 5.78125 33.328125 5.664062 C 32.726562 5.523438 32.117188 5.410156 31.507812 5.328125 C 30.328125 1.570312 26.957031 0 26.957031 0 C 23.199219 2.386719 22.484375 5.714844 22.484375 5.714844 L 22.449219 5.910156 C 22.242188 5.972656 22.03125 6.027344 21.828125 6.09375 C 21.539062 6.179688 21.253906 6.289062 20.964844 6.390625 C 20.679688 6.507812 20.394531 6.613281 20.113281 6.738281 C 18.972656 7.230469 17.886719 7.839844 16.867188 8.550781 L 16.738281 8.488281 C 11.535156 6.5 6.914062 8.894531 6.914062 8.894531 C 6.488281 14.433594 8.988281 17.917969 9.484375 18.554688 C 8.851562 20.328125 8.425781 22.171875 8.222656 24.042969 C 3.410156 26.410156 1.984375 31.277344 1.984375 31.277344 C 5.996094 35.890625 10.675781 36.175781 10.675781 36.175781 C 10.679688 36.171875 10.6875 36.171875 10.6875 36.167969 C 11.28125 37.226562 11.96875 38.238281 12.742188 39.179688 C 13.066406 39.574219 13.410156 39.953125 13.757812 40.320312 C 12.292969 44.507812 13.964844 47.988281 13.964844 47.988281 C 18.429688 48.152344 21.367188 46.035156 21.984375 45.542969 C 24.109375 46.25 26.335938 46.605469 28.574219 46.585938 L 28.742188 46.585938 L 28.855469 46.582031 L 29.078125 46.578125 L 29.292969 46.566406 L 29.300781 46.570312 C 31.402344 49.570312 35.109375 50 35.109375 50 C 37.742188 47.226562 37.894531 44.472656 37.894531 43.875 L 37.894531 43.753906 C 37.894531 43.710938 37.886719 43.671875 37.886719 43.628906 C 38.441406 43.238281 38.972656 42.824219 39.464844 42.378906 C 40.609375 41.34375 41.601562 40.152344 42.414062 38.835938 C 45.394531 39.011719 47.492188 36.992188 47.492188 36.992188 C 47 33.890625 45.230469 32.378906 44.859375 32.089844 L 44.820312 32.0625 L 44.789062 32.035156 C 44.765625 32.023438 44.742188 32.007812 44.722656 31.992188 C 44.738281 31.800781 44.757812 31.617188 44.765625 31.429688 C 44.789062 31.09375 44.796875 30.757812 44.796875 30.429688 L 44.796875 29.902344 L 44.789062 29.699219 L 44.769531 29.417969 C 44.765625 29.328125 44.761719 29.238281 44.75 29.148438 C 44.742188 29.058594 44.734375 28.976562 44.722656 28.886719 L 44.691406 28.628906 L 44.652344 28.375 C 44.199219 25.367188 42.699219 22.617188 40.417969 20.605469 C 38.535156 18.941406 36.199219 17.878906 33.707031 17.5625 C 33.117188 17.488281 32.527344 17.457031 31.933594 17.460938 L 31.710938 17.464844 L 31.582031 17.464844 L 31.488281 17.472656 L 31.273438 17.488281 C 28.574219 17.671875 26.066406 18.949219 24.324219 21.019531 C 23.632812 21.855469 23.089844 22.769531 22.726562 23.722656 C 22.253906 24.929688 22.035156 26.214844 22.074219 27.507812 L 22.082031 27.699219 C 22.089844 27.8125 22.097656 27.925781 22.109375 28.039062 C 22.238281 29.414062 22.738281 30.722656 23.5625 31.832031 C 24.507812 33.109375 25.84375 34.046875 27.367188 34.503906 C 28.054688 34.707031 28.742188 34.792969 29.390625 34.789062 C 29.472656 34.789062 29.554688 34.789062 29.628906 34.785156 L 29.761719 34.777344 C 29.800781 34.777344 29.847656 34.769531 29.890625 34.769531 C 29.960938 34.765625 30.023438 34.757812 30.097656 34.75 C 30.109375 34.75 30.132812 34.742188 30.152344 34.742188 L 30.21875 34.734375 L 30.34375 34.714844 C 30.421875 34.707031 30.5 34.691406 30.578125 34.675781 C 30.652344 34.660156 30.726562 34.648438 30.804688 34.625 C 31.488281 34.460938 32.136719 34.167969 32.707031 33.761719 C 32.765625 33.71875 32.824219 33.675781 32.886719 33.625 C 32.992188 33.539062 33.0625 33.414062 33.078125 33.277344 C 33.09375 33.140625 33.054688 33.003906 32.964844 32.894531 C 32.8125 32.703125 32.539062 32.648438 32.324219 32.769531 L 32.160156 32.859375 C 31.972656 32.949219 31.777344 33.03125 31.570312 33.101562 C 31.25 33.199219 30.917969 33.265625 30.582031 33.300781 C 30.523438 33.304688 30.46875 33.3125 30.410156 33.3125 L 30.234375 33.316406 C 30.179688 33.316406 30.121094 33.316406 30.070312 33.3125 L 29.855469 33.300781 L 29.832031 33.300781 L 29.78125 33.3125 C 29.746094 33.304688 29.714844 33.304688 29.691406 33.300781 C 29.625 33.296875 29.566406 33.285156 29.5 33.277344 C 28.976562 33.207031 28.46875 33.054688 27.992188 32.835938 C 27.484375 32.605469 27.015625 32.296875 26.601562 31.921875 C 25.707031 31.121094 25.117188 30.035156 24.925781 28.851562 C 24.875 28.542969 24.855469 28.234375 24.863281 27.925781 L 24.878906 27.671875 L 24.878906 27.621094 L 24.882812 27.558594 C 24.886719 27.515625 24.886719 27.476562 24.890625 27.433594 C 25.082031 25.507812 26.113281 23.761719 27.707031 22.664062 C 28.304688 22.257812 28.964844 21.953125 29.660156 21.765625 C 30.1875 21.625 30.730469 21.554688 31.277344 21.554688 L 31.402344 21.554688 L 31.546875 21.558594 L 31.640625 21.566406 L 31.695312 21.566406 L 31.839844 21.578125 C 33.035156 21.671875 34.199219 22.019531 35.246094 22.597656 C 36.679688 23.394531 37.84375 24.597656 38.585938 26.058594 C 39.050781 26.980469 39.332031 27.980469 39.414062 29.007812 L 39.429688 29.320312 C 39.433594 29.375 39.433594 29.425781 39.433594 29.476562 C 39.433594 29.527344 39.441406 29.585938 39.433594 29.621094 L 39.433594 29.757812 L 39.429688 29.910156 L 39.414062 30.273438 C 39.378906 30.71875 39.324219 31.164062 39.246094 31.605469 C 39.121094 32.265625 38.9375 32.910156 38.691406 33.535156 C 38.355469 34.371094 37.917969 35.160156 37.390625 35.890625 C 35.777344 38.117188 33.355469 39.621094 30.644531 40.085938 C 30.199219 40.160156 29.746094 40.207031 29.292969 40.222656 L 29.210938 40.230469 L 28.613281 40.230469 C 27.402344 40.203125 26.203125 40.019531 25.039062 39.675781 C 22.246094 38.867188 19.773438 37.210938 17.957031 34.941406 C 17.359375 34.195312 16.835938 33.394531 16.402344 32.542969 C 15.539062 30.863281 15.035156 29.019531 14.914062 27.136719 L 14.902344 26.960938 L 14.898438 26.921875 L 14.898438 26.804688 L 14.894531 26.652344 L 14.894531 26.453125 L 14.886719 26.234375 L 14.886719 26.089844 L 14.894531 25.75 C 14.910156 25.292969 14.949219 24.8125 15.007812 24.335938 C 15.125 23.382812 15.320312 22.4375 15.589844 21.515625 C 15.855469 20.589844 16.183594 19.699219 16.574219 18.855469 C 17.3125 17.222656 18.339844 15.742188 19.609375 14.480469 C 20.214844 13.882812 20.878906 13.351562 21.59375 12.890625 C 21.945312 12.660156 22.308594 12.445312 22.683594 12.253906 C 22.871094 12.148438 23.066406 12.0625 23.253906 11.972656 C 23.351562 11.929688 23.449219 11.882812 23.542969 11.839844 C 24.027344 11.628906 24.523438 11.445312 25.027344 11.285156 L 25.332031 11.191406 C 25.433594 11.160156 25.535156 11.136719 25.640625 11.105469 C 25.84375 11.046875 26.050781 10.996094 26.257812 10.949219 C 26.359375 10.921875 26.464844 10.90625 26.570312 10.878906 L 26.882812 10.8125 L 27.195312 10.753906 L 27.355469 10.726562 L 27.511719 10.707031 L 27.828125 10.65625 C 27.949219 10.636719 28.066406 10.628906 28.183594 10.609375 L 28.539062 10.566406 C 28.613281 10.558594 28.691406 10.546875 28.757812 10.542969 L 28.910156 10.527344 L 28.984375 10.519531 L 29.074219 10.515625 C 29.191406 10.511719 29.308594 10.5 29.429688 10.496094 L 29.609375 10.484375 L 29.65625 10.484375 L 29.734375 10.476562 L 30.035156 10.460938 C 31.226562 10.421875 32.421875 10.507812 33.59375 10.722656 C 35.074219 11 36.507812 11.476562 37.859375 12.140625 C 39.109375 12.753906 40.277344 13.515625 41.34375 14.410156 L 41.53125 14.570312 L 41.714844 14.734375 C 41.839844 14.839844 41.953125 14.957031 42.074219 15.066406 C 42.191406 15.171875 42.304688 15.285156 42.417969 15.398438 C 42.527344 15.511719 42.640625 15.621094 42.75 15.738281 C 43.917969 16.96875 44.90625 18.355469 45.6875 19.859375 C 45.710938 19.914062 45.746094 19.96875 45.769531 20.023438 L 45.855469 20.183594 L 46.011719 20.511719 C 46.058594 20.617188 46.113281 20.71875 46.15625 20.828125 L 46.292969 21.140625 C 46.679688 22.046875 46.992188 22.980469 47.230469 23.933594 C 47.277344 24.121094 47.453125 24.246094 47.648438 24.230469 C 47.847656 24.214844 48.003906 24.046875 48.007812 23.847656 C 48.027344 23.332031 48.011719 22.738281 47.957031 22.0625 Z M 47.957031 22.0625 "/>
</g>
</svg>
