<?xml version="1.0" encoding="UTF-8"?>
<svg xmlns="http://www.w3.org/2000/svg" xmlns:xlink="http://www.w3.org/1999/xlink" width="50px" height="px" viewBox="0 0 50 67" version="1.1">
<g id="surface1">
<path style=" stroke:none;fill-rule:nonzero;fill:rgb(32.54902%,50.980392%,63.137255%);fill-opacity:1;" d="M 16.125 51.792969 C 16.125 51.792969 13.546875 53.28125 17.957031 53.78125 C 23.304688 54.386719 26.035156 54.300781 31.925781 53.195312 C 31.925781 53.195312 33.476562 54.160156 35.636719 54.992188 C 22.433594 60.601562 5.75 54.667969 16.125 51.792969 M 14.511719 44.472656 C 14.511719 44.472656 11.617188 46.59375 16.035156 47.046875 C 21.746094 47.628906 26.253906 47.679688 34.058594 46.1875 C 34.058594 46.1875 35.136719 47.273438 36.832031 47.867188 C 20.867188 52.496094 3.082031 48.230469 14.511719 44.472656 "/>
<path style=" stroke:none;fill-rule:nonzero;fill:rgb(90.588235%,43.529412%,0%);fill-opacity:1;" d="M 28.113281 32.050781 C 31.367188 35.765625 27.257812 39.105469 27.257812 39.105469 C 27.257812 39.105469 35.519531 34.878906 31.726562 29.582031 C 28.183594 24.644531 25.464844 22.191406 40.175781 13.730469 C 40.175781 13.730469 17.082031 19.449219 28.113281 32.050781 "/>
<path style=" stroke:none;fill-rule:nonzero;fill:rgb(32.54902%,50.980392%,63.137255%);fill-opacity:1;" d="M 45.578125 57.210938 C 45.578125 57.210938 47.488281 58.769531 43.476562 59.972656 C 35.855469 62.261719 11.753906 62.953125 5.058594 60.066406 C 2.652344 59.027344 7.164062 57.585938 8.582031 57.285156 C 10.066406 56.964844 10.910156 57.023438 10.910156 57.023438 C 8.234375 55.15625 -6.390625 60.695312 3.480469 62.28125 C 30.40625 66.613281 52.5625 60.332031 45.578125 57.210938 M 17.363281 36.886719 C 17.363281 36.886719 5.101562 39.773438 13.023438 40.820312 C 16.367188 41.265625 23.03125 41.164062 29.238281 40.648438 C 34.3125 40.222656 39.40625 39.320312 39.40625 39.320312 C 39.40625 39.320312 37.617188 40.082031 36.324219 40.957031 C 23.875 44.203125 -0.175781 42.695312 6.746094 39.371094 C 12.601562 36.566406 17.363281 36.886719 17.363281 36.886719 M 39.355469 49.074219 C 52.011719 42.554688 46.160156 36.285156 42.078125 37.132812 C 41.074219 37.335938 40.628906 37.515625 40.628906 37.515625 C 40.628906 37.515625 41 36.941406 41.710938 36.691406 C 49.789062 33.875 56.003906 44.996094 39.101562 49.402344 C 39.101562 49.402344 39.296875 49.226562 39.355469 49.074219 "/>
<path style=" stroke:none;fill-rule:nonzero;fill:rgb(90.588235%,43.529412%,0%);fill-opacity:1;" d="M 31.726562 0.0703125 C 31.726562 0.0703125 38.734375 7.023438 25.078125 17.710938 C 14.128906 26.289062 22.582031 31.175781 25.074219 36.761719 C 18.679688 31.042969 13.988281 26.011719 17.136719 21.324219 C 21.757812 14.449219 34.554688 11.113281 31.726562 0.0703125 "/>
<path style=" stroke:none;fill-rule:nonzero;fill:rgb(32.54902%,50.980392%,63.137255%);fill-opacity:1;" d="M 18.605469 66.742188 C 30.753906 67.511719 49.410156 66.3125 49.851562 60.613281 C 49.851562 60.613281 49.003906 62.773438 39.8125 64.492188 C 29.445312 66.425781 16.65625 66.199219 9.070312 64.960938 C 9.070312 64.960938 10.621094 66.234375 18.605469 66.742188 "/>
</g>
</svg>
