<?xml version="1.0" encoding="UTF-8"?>
<svg xmlns="http://www.w3.org/2000/svg" xmlns:xlink="http://www.w3.org/1999/xlink" width="50px" height="px" viewBox="0 0 50 50" version="1.1">
<g id="surface1">
<path style=" stroke:none;fill-rule:nonzero;fill:rgb(100%,100%,100%);fill-opacity:1;" d="M 5.984375 50 L 3.953125 50 C 3.898438 49.863281 3.851562 49.726562 3.804688 49.589844 C 3.359375 48.203125 2.570312 46.484375 2.363281 45.101562 C 2.058594 43.050781 3.988281 42.9375 5.226562 42.050781 C 7.132812 40.675781 8.632812 39.914062 10.699219 38.675781 C 11.316406 38.300781 13.164062 37.375 13.367188 36.949219 C 13.789062 36.097656 12.648438 34.902344 12.347656 34.238281 C 11.878906 33.183594 11.628906 32.289062 11.566406 31.25 C 9.847656 30.980469 8.535156 29.945312 7.722656 28.78125 C 6.410156 26.855469 5.503906 23.292969 6.628906 20.582031 C 6.722656 20.367188 7.160156 19.945312 7.222656 19.617188 C 7.347656 18.976562 7.003906 18.117188 6.972656 17.433594 C 6.847656 13.910156 7.566406 10.871094 9.941406 9.808594 C 10.90625 5.976562 14.34375 4.699219 17.59375 2.792969 C 18.800781 2.082031 20.144531 1.621094 21.53125 1.113281 C 26.472656 -0.714844 34.085938 -0.371094 38.183594 2.742188 C 39.925781 4.0625 42.71875 6.847656 43.71875 8.867188 C 46.347656 14.191406 46.15625 23.085938 44.316406 29.5625 C 44.066406 30.441406 43.710938 31.710938 43.207031 32.757812 C 42.855469 33.484375 41.769531 34.945312 41.902344 35.589844 C 42.039062 36.242188 44.382812 38.027344 44.886719 38.496094 C 45.792969 39.375 47.511719 40.527344 47.644531 41.621094 C 47.792969 42.78125 47.128906 44.402344 46.792969 45.527344 C 46.339844 47.027344 45.882812 48.527344 45.429688 49.964844 L 5.980469 49.964844 Z M 29.117188 42.625 C 27.765625 41.898438 26.316406 41.367188 24.816406 41.046875 C 23.003906 40.707031 23.191406 43.523438 23.253906 45.203125 C 23.316406 46.542969 24.003906 47.945312 24.316406 48.835938 C 24.472656 49.246094 24.503906 49.691406 24.847656 49.769531 C 25.472656 49.914062 27.535156 49.089844 28.128906 48.773438 C 29.378906 48.089844 30.347656 47.015625 31.410156 46.296875 C 31.441406 45.941406 31.441406 45.585938 31.472656 45.238281 C 30.761719 44.882812 29.984375 44.6875 29.191406 44.660156 C 29.84375 44.347656 30.753906 44.347656 31.347656 43.96875 L 31.378906 43.566406 C 30.347656 43.503906 29.941406 43.039062 29.253906 42.660156 Z M 44.644531 48.738281 C 45.03125 47.539062 45.355469 46.320312 45.613281 45.089844 C 45.738281 44.492188 46.0625 43.175781 45.984375 42.640625 C 45.863281 41.683594 44.558594 40.976562 43.894531 40.378906 C 42.675781 39.285156 41.914062 38.347656 40.644531 37.316406 C 40.125 38.097656 39.019531 38.597656 38.597656 39.222656 C 41.609375 37.785156 42.160156 44.691406 40.972656 46.910156 C 41.160156 47.59375 41.789062 47.847656 42.042969 48.441406 L 41.863281 48.785156 L 44.550781 48.785156 C 44.578125 48.785156 44.613281 48.785156 44.644531 48.816406 Z M 30.824219 48.714844 C 30.722656 48.558594 30.617188 48.433594 30.511719 48.277344 L 29.886719 48.683594 L 30.824219 48.683594 Z M 36.597656 48.714844 C 36.613281 48.277344 36.632812 47.871094 36.660156 47.46875 C 35.554688 47.527344 34.941406 46.46875 34.167969 46.371094 C 33.492188 46.277344 32.917969 47.121094 32.042969 46.777344 C 31.84375 46.996094 31.660156 47.25 31.449219 47.433594 C 31.769531 47.808594 32.066406 48.214844 32.332031 48.652344 L 34.03125 48.652344 C 34.046875 48.316406 34.320312 48.054688 34.65625 48.058594 C 35 48.058594 35.246094 48.308594 35.246094 48.621094 L 36.621094 48.621094 Z M 41.003906 48.714844 C 40.351562 47.714844 39.03125 46.84375 37.503906 47.558594 L 37.441406 48.683594 L 41.003906 48.683594 Z M 23.273438 48.714844 L 23.058594 47.996094 C 22.589844 46.496094 22.308594 45.371094 22.214844 44.496094 C 20.308594 43.589844 18.308594 42.683594 16.683594 41.527344 C 16.371094 41.308594 14.375 38.714844 14.121094 38.808594 C 10.5 40.214844 7.125 42.683594 4.09375 45.023438 C 4.628906 46.183594 5.09375 47.402344 5.53125 48.648438 L 23.25 48.648438 Z M 40.492188 44.3125 C 40.433594 43.246094 40.152344 41.0625 39.492188 40.6875 C 38.117188 39.875 35.648438 42.3125 34.617188 42.652344 C 34.710938 42.964844 34.898438 43.214844 34.929688 43.652344 C 35.523438 43.496094 36.273438 43.589844 36.800781 43.84375 C 36.179688 43.90625 35.492188 43.90625 35.085938 44.183594 C 34.929688 44.589844 35.117188 45.183594 35.023438 45.777344 C 36.460938 46.1875 38.148438 46.410156 39.992188 46.46875 C 40.335938 45.996094 40.460938 45.125 40.433594 44.214844 Z M 31.992188 43.5625 C 31.902344 44.34375 32.089844 44.625 32.242188 45.527344 C 34.867188 46.339844 34.398438 41.902344 31.960938 43.527344 Z M 18.25 40.625 C 17.3125 41.578125 20.894531 42.878906 22.027344 42.949219 C 22.027344 42.34375 22.371094 41.773438 22.308594 41.34375 C 20.957031 41.097656 19.179688 41.257812 18.257812 40.621094 Z M 29.84375 41.074219 C 29.84375 41.164062 29.714844 41.136719 29.703125 41.207031 C 30.910156 42.144531 31.816406 42.339844 33.457031 42.269531 C 34.195312 41.722656 34.851562 41.097656 35.628906 40.585938 C 33.847656 40.742188 31.605469 41.851562 29.851562 41.066406 Z M 36.96875 4.144531 C 33.621094 2.257812 27.90625 0.828125 24.308594 2.621094 C 21.433594 4.0625 17.496094 6.453125 16.1875 9.480469 C 17.4375 12.398438 15.839844 15.074219 15.714844 18.039062 C 15.679688 19.617188 16.464844 20.996094 16.53125 22.710938 C 16.113281 23.414062 14.8125 23.503906 13.90625 23.453125 C 13.601562 21.933594 13.074219 20.226562 11.5 20.054688 C 9.285156 19.816406 7.65625 21.648438 7.5625 23.5625 C 7.4375 25.8125 9.296875 29.527344 11.90625 29.28125 C 12.921875 29.183594 13.171875 28.15625 14.277344 28.15625 C 14.871094 29.34375 13.351562 29.71875 13.191406 30.558594 C 13.15625 30.777344 13.316406 31.625 13.40625 32.027344 C 13.890625 33.996094 14.957031 36.527344 16 38.027344 C 17.324219 39.902344 19.925781 40.21875 22.726562 40.40625 C 23.226562 39.3125 25.070312 39.40625 26.28125 39.683594 C 24.839844 39.121094 23.496094 37.714844 22.375 36.5 C 21.09375 35.089844 19.8125 33.5625 19.746094 31.75 C 22.152344 35.089844 24.121094 38 28.496094 39.464844 C 31.808594 40.558594 35.683594 38.9375 38.214844 37.15625 C 39.277344 36.410156 39.902344 35.21875 40.652344 34.160156 C 43.464844 30.125 44.777344 24.347656 44.496094 18.753906 C 44.371094 16.441406 44.371094 14.128906 43.589844 12.597656 C 42.777344 10.972656 40.058594 9.535156 38.433594 10.972656 C 38.121094 9.378906 39.746094 8.410156 41.652344 8.972656 C 40.277344 7.191406 38.867188 5.101562 36.929688 4.003906 Z M 28.292969 31.035156 C 29.574219 34.25 33.964844 33.871094 37.675781 33.789062 C 37.503906 34.195312 37.144531 34.695312 36.707031 34.863281 C 35.519531 35.347656 32.238281 35.710938 30.589844 34.835938 C 29.535156 34.273438 28.871094 33.019531 28.292969 32.28125 C 28.007812 31.921875 26.636719 31.015625 28.269531 31.011719 Z M 28.632812 29.222656 C 30.492188 30.1875 33.882812 30.296875 36.40625 30.222656 C 36.542969 30.777344 36.542969 31.457031 36.546875 32.121094 C 33.320312 32.289062 29.492188 31.488281 28.644531 29.214844 L 28.632812 29.214844 Z M 42.539062 28 C 41.554688 29.875 40.152344 31.953125 37.25 32.015625 C 37.203125 31.425781 37.15625 30.484375 37.25 30.132812 C 39.464844 29.917969 40.847656 28.789062 42.546875 28.015625 Z M 41.1875 26.609375 C 39.0625 27.984375 36.699219 29.476562 33.222656 29.132812 C 32.488281 28.484375 32.210938 27.046875 32.929688 26.09375 C 33.304688 26.746094 33.054688 27.9375 34.117188 28.113281 C 36.082031 28.457031 38.363281 26.910156 39.804688 26.363281 C 40.679688 24.878906 39.707031 24.332031 38.929688 23.378906 C 37.300781 21.441406 35.117188 19.003906 35.175781 16.066406 C 35.828125 15.601562 35.894531 16.789062 35.988281 17.003906 C 36.832031 19.003906 38.957031 21.535156 40.519531 23.253906 C 40.894531 23.691406 41.519531 24.066406 41.582031 24.347656 C 41.773438 25.160156 41.050781 26.125 41.144531 26.660156 Z M 13.191406 25.203125 C 12.535156 24.820312 12.371094 23.140625 11.589844 23.101562 C 10.476562 23.039062 10.675781 25.289062 10.679688 26.601562 C 9.910156 25.914062 9.773438 23.757812 10.339844 22.664062 C 9.699219 22.351562 9.414062 23.003906 9.050781 23.253906 C 9.511719 19.941406 13.925781 21.726562 13.199219 25.253906 Z M 9.820312 12.488281 C 8.390625 14.066406 8.695312 17.019531 8.863281 19.132812 C 11.453125 17.496094 14.898438 19.257812 14.867188 22.035156 C 16.109375 22.003906 15.332031 20.484375 15.109375 19.503906 C 14.371094 16.320312 16.339844 12.863281 15.195312 9.941406 C 12.976562 10.117188 11.152344 11.023438 9.824219 12.472656 Z M 28.820312 14.808594 C 29.457031 15.980469 29.660156 17.199219 30.570312 18.078125 C 30.976562 18.476562 31.765625 18.960938 31.375 20.058594 C 31.28125 20.308594 30.613281 20.871094 30.226562 20.996094 C 28.824219 21.402344 25.53125 21.058594 26.640625 19.308594 C 27.816406 19.339844 29.378906 20.058594 30.25 19.214844 C 29.597656 18.121094 28.40625 16.027344 28.847656 14.777344 Z M 41.730469 14.78125 L 41.871094 14.78125 C 42.558594 16.171875 43.121094 17.644531 43.964844 18.875 C 43.402344 20.183594 39.6875 21.355469 39.75 18.992188 C 40.5625 18.640625 41.9375 18.921875 42.65625 18.472656 C 42.253906 17.316406 41.65625 16.378906 41.753906 14.785156 Z M 27.300781 11.414062 C 24.335938 10.726562 22.859375 12.644531 21.964844 14.648438 C 21.167969 14.453125 21.484375 13.367188 21.683594 12.808594 C 22.214844 11.347656 24.351562 9.40625 26.101562 9.671875 C 26.847656 9.789062 27.867188 10.476562 27.300781 11.410156 Z M 20.085938 3.320312 C 16.835938 4.234375 12.671875 6.597656 11.335938 9.515625 C 12.367188 9.367188 13.085938 8.847656 14.109375 8.785156 C 14.496094 8.75 15 8.9375 15.445312 8.816406 C 16.328125 8.597656 17.070312 6.597656 17.738281 5.878906 C 18.386719 5.160156 19.167969 4.84375 19.699219 4.191406 C 20.046875 4.003906 20.550781 4.035156 20.574219 3.503906 C 20.421875 3.347656 20.261719 3.222656 20.089844 3.285156 L 20.089844 3.320312 Z M 20.085938 3.320312 "/>
</g>
</svg>
