<?xml version="1.0" encoding="UTF-8"?>
<svg xmlns="http://www.w3.org/2000/svg" xmlns:xlink="http://www.w3.org/1999/xlink" width="50px" height="px" viewBox="0 0 50 50" version="1.1">
<g id="surface1">
<path style=" stroke:none;fill-rule:nonzero;fill:rgb(100%,100%,100%);fill-opacity:1;" d="M 21.257812 29.894531 L 21.273438 29.917969 L 19.191406 34.945312 C 17.195312 33.664062 15.675781 31.761719 14.867188 29.535156 L 20.238281 28.621094 L 20.246094 28.632812 C 20.582031 28.570312 20.917969 28.699219 21.128906 28.960938 C 21.339844 29.226562 21.390625 29.585938 21.257812 29.894531 Z M 19.523438 25.460938 C 19.847656 25.371094 20.097656 25.109375 20.175781 24.78125 C 20.25 24.453125 20.136719 24.109375 19.882812 23.886719 L 19.886719 23.863281 L 15.800781 20.207031 C 14.554688 22.238281 14.019531 24.621094 14.28125 26.988281 L 19.519531 25.480469 Z M 21.910156 21.335938 C 22.179688 21.535156 22.542969 21.566406 22.847656 21.421875 C 23.152344 21.273438 23.351562 20.972656 23.363281 20.632812 L 23.386719 20.621094 L 23.699219 15.164062 C 21.332031 15.441406 19.125 16.5 17.425781 18.167969 L 21.898438 21.339844 Z M 23.492188 27.066406 L 24.996094 27.792969 L 26.503906 27.070312 L 26.878906 25.445312 L 25.835938 24.144531 L 24.160156 24.144531 L 23.117188 25.445312 Z M 26.617188 20.617188 C 26.632812 20.953125 26.832031 21.257812 27.136719 21.402344 C 27.441406 21.550781 27.800781 21.515625 28.074219 21.316406 L 28.089844 21.324219 L 32.539062 18.171875 C 30.84375 16.511719 28.65625 15.457031 26.304688 15.167969 L 26.613281 20.613281 Z M 49.273438 33.054688 L 37.246094 48.015625 C 36.613281 48.800781 35.65625 49.253906 34.648438 49.253906 L 15.355469 49.257812 C 14.34375 49.257812 13.390625 48.800781 12.757812 48.015625 L 0.722656 33.058594 C 0.0976562 32.273438 -0.140625 31.246094 0.0820312 30.265625 L 4.375 11.609375 C 4.601562 10.632812 5.261719 9.808594 6.171875 9.375 L 23.550781 1.070312 C 24.464844 0.632812 25.523438 0.632812 26.4375 1.070312 L 43.824219 9.371094 C 44.734375 9.804688 45.394531 10.628906 45.621094 11.605469 L 49.917969 30.261719 C 50.140625 31.242188 49.90625 32.269531 49.273438 33.054688 Z M 42.421875 28.769531 C 42.335938 28.746094 42.207031 28.714844 42.121094 28.699219 C 41.757812 28.628906 41.464844 28.644531 41.121094 28.617188 C 40.394531 28.542969 39.792969 28.480469 39.257812 28.308594 C 39.039062 28.226562 38.882812 27.964844 38.808594 27.859375 L 38.390625 27.738281 C 38.613281 26.117188 38.539062 24.472656 38.171875 22.878906 C 37.800781 21.269531 37.140625 19.742188 36.222656 18.371094 C 36.328125 18.273438 36.535156 18.097656 36.589844 18.042969 C 36.605469 17.855469 36.589844 17.660156 36.785156 17.453125 C 37.195312 17.070312 37.710938 16.75 38.332031 16.367188 C 38.628906 16.191406 38.902344 16.082031 39.199219 15.863281 C 39.265625 15.8125 39.355469 15.734375 39.425781 15.675781 C 39.925781 15.277344 40.042969 14.59375 39.683594 14.144531 C 39.324219 13.695312 38.628906 13.652344 38.132812 14.050781 C 38.058594 14.105469 37.964844 14.179688 37.898438 14.234375 C 37.621094 14.476562 37.449219 14.710938 37.210938 14.960938 C 36.699219 15.484375 36.273438 15.917969 35.808594 16.230469 C 35.609375 16.347656 35.3125 16.308594 35.179688 16.300781 L 34.785156 16.582031 C 32.503906 14.191406 29.433594 12.707031 26.144531 12.410156 L 26.121094 11.945312 C 25.984375 11.816406 25.824219 11.703125 25.78125 11.421875 C 25.734375 10.863281 25.8125 10.261719 25.898438 9.539062 C 25.949219 9.199219 26.027344 8.917969 26.042969 8.546875 C 26.042969 8.464844 26.039062 8.339844 26.039062 8.253906 C 26.039062 7.613281 25.574219 7.097656 24.996094 7.097656 C 24.425781 7.097656 23.957031 7.613281 23.957031 8.253906 L 23.960938 8.28125 C 23.960938 8.367188 23.957031 8.472656 23.960938 8.546875 C 23.972656 8.917969 24.050781 9.199219 24.101562 9.539062 C 24.1875 10.261719 24.261719 10.863281 24.214844 11.425781 C 24.15625 11.632812 24.039062 11.820312 23.878906 11.960938 L 23.855469 12.402344 C 20.542969 12.667969 17.449219 14.15625 15.175781 16.574219 C 15.050781 16.488281 14.921875 16.398438 14.800781 16.308594 C 14.613281 16.332031 14.425781 16.390625 14.179688 16.246094 C 13.714844 15.933594 13.292969 15.503906 12.777344 14.980469 C 12.542969 14.730469 12.371094 14.492188 12.09375 14.253906 C 12.019531 14.191406 11.941406 14.128906 11.863281 14.070312 C 11.65625 13.902344 11.402344 13.808594 11.136719 13.796875 C 10.820312 13.777344 10.511719 13.914062 10.308594 14.164062 C 9.949219 14.613281 10.066406 15.300781 10.566406 15.699219 L 10.578125 15.707031 L 10.796875 15.882812 C 11.089844 16.101562 11.363281 16.210938 11.660156 16.386719 C 12.28125 16.769531 12.796875 17.089844 13.207031 17.472656 C 13.363281 17.644531 13.394531 17.945312 13.414062 18.074219 L 13.746094 18.371094 C 11.90625 21.132812 11.148438 24.472656 11.621094 27.757812 L 11.191406 27.882812 C 11.074219 28.035156 10.914062 28.265625 10.742188 28.335938 C 10.207031 28.503906 9.605469 28.566406 8.878906 28.640625 C 8.535156 28.671875 8.242188 28.652344 7.878906 28.722656 C 7.800781 28.738281 7.691406 28.765625 7.601562 28.785156 L 7.578125 28.792969 C 6.960938 28.941406 6.570312 29.507812 6.695312 30.058594 C 6.824219 30.617188 7.421875 30.953125 8.039062 30.820312 L 8.054688 30.820312 L 8.074219 30.8125 L 8.34375 30.753906 C 8.699219 30.65625 8.957031 30.515625 9.277344 30.394531 C 9.964844 30.148438 10.535156 29.941406 11.089844 29.859375 C 11.324219 29.839844 11.570312 30.003906 11.691406 30.070312 L 12.140625 29.992188 C 13.160156 33.140625 15.292969 35.804688 18.140625 37.484375 L 17.953125 37.941406 C 18.023438 38.113281 18.097656 38.355469 18.046875 38.527344 C 17.84375 39.050781 17.496094 39.605469 17.105469 40.222656 C 16.914062 40.503906 16.71875 40.726562 16.546875 41.050781 C 16.503906 41.128906 16.453125 41.25 16.414062 41.332031 C 16.144531 41.902344 16.339844 42.5625 16.855469 42.808594 C 17.371094 43.058594 18.015625 42.796875 18.292969 42.222656 L 18.292969 42.21875 C 18.335938 42.136719 18.390625 42.03125 18.421875 41.953125 C 18.570312 41.617188 18.617188 41.328125 18.722656 41 C 18.996094 40.308594 19.148438 39.582031 19.527344 39.132812 C 19.632812 39.007812 19.800781 38.960938 19.976562 38.914062 L 20.210938 38.484375 C 23.300781 39.675781 26.71875 39.683594 29.816406 38.511719 L 30.035156 38.910156 C 30.214844 38.96875 30.410156 38.996094 30.570312 39.234375 C 30.851562 39.714844 31.046875 40.289062 31.28125 40.984375 C 31.386719 41.308594 31.433594 41.597656 31.582031 41.933594 C 31.617188 42.011719 31.671875 42.121094 31.710938 42.203125 C 31.988281 42.777344 32.632812 43.042969 33.148438 42.792969 C 33.664062 42.546875 33.859375 41.886719 33.59375 41.3125 C 33.550781 41.230469 33.5 41.113281 33.457031 41.035156 C 33.285156 40.707031 33.089844 40.488281 32.898438 40.203125 C 32.503906 39.585938 32.179688 39.078125 31.976562 38.550781 C 31.894531 38.28125 31.992188 38.113281 32.054688 37.941406 C 32.019531 37.894531 31.933594 37.640625 31.882812 37.519531 C 34.742188 35.824219 36.875 33.140625 37.882812 29.972656 C 38.015625 29.992188 38.25 30.035156 38.328125 30.050781 C 38.484375 29.949219 38.628906 29.816406 38.910156 29.835938 C 39.464844 29.917969 40.035156 30.121094 40.722656 30.367188 C 41.042969 30.492188 41.300781 30.636719 41.65625 30.730469 C 41.730469 30.75 41.839844 30.769531 41.925781 30.789062 L 41.945312 30.792969 L 41.960938 30.796875 C 42.578125 30.929688 43.175781 30.589844 43.304688 30.035156 C 43.429688 29.480469 43.039062 28.917969 42.421875 28.769531 Z M 34.167969 20.210938 L 30.105469 23.847656 L 30.105469 23.859375 C 29.847656 24.082031 29.734375 24.425781 29.8125 24.753906 C 29.886719 25.085938 30.136719 25.347656 30.464844 25.433594 L 30.472656 25.457031 L 35.734375 26.972656 C 35.847656 25.804688 35.773438 24.628906 35.507812 23.484375 C 35.242188 22.328125 34.789062 21.21875 34.167969 20.207031 Z M 25.804688 31.304688 C 25.640625 30.996094 25.316406 30.804688 24.964844 30.820312 C 24.636719 30.832031 24.34375 31.019531 24.191406 31.304688 L 24.183594 31.304688 L 21.542969 36.082031 C 23.789062 36.847656 26.226562 36.851562 28.472656 36.085938 L 25.828125 31.304688 Z M 29.738281 28.609375 C 29.550781 28.574219 29.351562 28.601562 29.175781 28.683594 C 28.730469 28.898438 28.535156 29.425781 28.730469 29.878906 L 28.726562 29.886719 L 30.828125 34.964844 C 32.839844 33.679688 34.363281 31.765625 35.164062 29.515625 L 29.746094 28.601562 Z M 29.738281 28.609375 "/>
</g>
</svg>
