<?xml version="1.0" encoding="UTF-8"?>
<svg xmlns="http://www.w3.org/2000/svg" xmlns:xlink="http://www.w3.org/1999/xlink" width="50px" height="px" viewBox="0 0 50 50" version="1.1">
<g id="surface1">
<path style=" stroke:none;fill-rule:nonzero;fill:rgb(0%,0%,0%);fill-opacity:1;" d="M 26.050781 0 C 25.726562 0 25.394531 0.015625 25.050781 0.0429688 C 16.246094 0.738281 18.582031 10.058594 18.445312 13.164062 C 18.289062 15.441406 17.820312 17.234375 16.257812 19.457031 C 14.414062 21.644531 11.828125 25.183594 10.601562 28.875 C 10.019531 30.609375 9.746094 32.382812 10.003906 34.058594 C 9.90625 34.136719 9.828125 34.234375 9.773438 34.339844 C 9.230469 34.898438 8.835938 35.589844 8.390625 36.089844 C 7.976562 36.503906 7.382812 36.644531 6.730469 36.921875 C 6.078125 37.207031 5.359375 37.484375 4.929688 38.339844 C 4.742188 38.734375 4.648438 39.160156 4.65625 39.59375 C 4.65625 40.007812 4.710938 40.425781 4.769531 40.710938 C 4.890625 41.542969 5.011719 42.226562 4.855469 42.730469 C 4.335938 44.148438 4.269531 45.117188 4.632812 45.824219 C 4.996094 46.519531 5.746094 46.800781 6.589844 47.074219 C 8.277344 47.492188 10.570312 47.355469 12.371094 48.324219 C 14.300781 49.296875 16.257812 49.722656 17.820312 49.304688 C 18.917969 49.0625 19.839844 48.335938 20.335938 47.332031 C 21.558594 47.328125 22.898438 46.773438 25.046875 46.636719 C 26.503906 46.515625 28.324219 47.195312 30.414062 47.054688 C 30.464844 47.332031 30.546875 47.464844 30.652344 47.746094 L 30.660156 47.753906 C 31.472656 49.375 32.976562 50.113281 34.582031 49.984375 C 36.191406 49.859375 37.898438 48.867188 39.285156 47.265625 C 40.601562 45.671875 42.792969 45.007812 44.238281 44.132812 C 44.964844 43.71875 45.550781 43.15625 45.589844 42.355469 C 45.640625 41.523438 45.175781 40.667969 44.105469 39.488281 L 44.105469 39.289062 L 44.097656 39.28125 C 43.742188 38.863281 43.578125 38.167969 43.394531 37.351562 C 43.214844 36.515625 43.015625 35.714844 42.367188 35.171875 L 42.363281 35.171875 C 42.238281 35.058594 42.105469 35.035156 41.972656 34.890625 C 41.855469 34.808594 41.71875 34.765625 41.574219 34.757812 C 42.472656 32.097656 42.125 29.445312 41.214844 27.0625 C 40.105469 24.125 38.164062 21.566406 36.683594 19.804688 C 35.023438 17.710938 33.398438 15.730469 33.433594 12.789062 C 33.488281 8.304688 33.925781 0.0117188 26.050781 0 Z M 27.152344 7.09375 L 27.179688 7.09375 C 27.621094 7.09375 28.003906 7.222656 28.394531 7.507812 C 28.792969 7.789062 29.082031 8.199219 29.308594 8.617188 C 29.527344 9.15625 29.636719 9.574219 29.652344 10.125 C 29.652344 10.082031 29.667969 10.042969 29.667969 10 L 29.667969 10.21875 C 29.660156 10.203125 29.660156 10.191406 29.660156 10.175781 L 29.648438 10.125 C 29.644531 10.632812 29.539062 11.132812 29.335938 11.597656 C 29.238281 11.855469 29.089844 12.09375 28.894531 12.292969 C 28.835938 12.261719 28.773438 12.230469 28.710938 12.207031 C 28.492188 12.113281 28.296875 12.074219 28.117188 11.929688 C 27.96875 11.871094 27.816406 11.824219 27.660156 11.792969 C 27.765625 11.667969 27.964844 11.515625 28.042969 11.378906 C 28.152344 11.113281 28.210938 10.828125 28.226562 10.542969 L 28.226562 10.5 C 28.230469 10.21875 28.1875 9.933594 28.097656 9.667969 C 28.003906 9.386719 27.886719 9.25 27.714844 8.972656 C 27.542969 8.835938 27.367188 8.699219 27.160156 8.699219 L 27.128906 8.699219 C 26.933594 8.699219 26.761719 8.761719 26.582031 8.972656 C 26.382812 9.164062 26.238281 9.40625 26.152344 9.667969 C 26.042969 9.933594 25.980469 10.214844 25.964844 10.503906 L 25.964844 10.542969 C 25.972656 10.726562 25.984375 10.914062 26.007812 11.097656 C 25.605469 10.957031 25.097656 10.816406 24.742188 10.675781 C 24.722656 10.539062 24.710938 10.398438 24.707031 10.261719 L 24.707031 10.21875 C 24.691406 9.667969 24.796875 9.121094 25.019531 8.617188 C 25.1875 8.160156 25.503906 7.773438 25.914062 7.507812 C 26.269531 7.238281 26.707031 7.09375 27.152344 7.089844 Z M 20.980469 7.214844 L 21.054688 7.214844 C 21.351562 7.214844 21.617188 7.316406 21.886719 7.496094 C 22.191406 7.765625 22.4375 8.097656 22.605469 8.464844 C 22.792969 8.882812 22.894531 9.300781 22.921875 9.855469 L 22.921875 9.863281 C 22.9375 10.144531 22.933594 10.28125 22.917969 10.417969 L 22.917969 10.585938 C 22.855469 10.601562 22.800781 10.621094 22.746094 10.636719 C 22.429688 10.75 22.175781 10.917969 21.925781 11.050781 C 21.953125 10.863281 21.953125 10.675781 21.933594 10.496094 L 21.933594 10.464844 C 21.910156 10.1875 21.851562 10.046875 21.761719 9.769531 C 21.699219 9.558594 21.578125 9.367188 21.417969 9.214844 C 21.3125 9.121094 21.175781 9.070312 21.035156 9.082031 L 20.992188 9.082031 C 20.84375 9.09375 20.722656 9.164062 20.605469 9.355469 C 20.472656 9.515625 20.386719 9.710938 20.355469 9.917969 C 20.296875 10.144531 20.28125 10.375 20.304688 10.605469 L 20.304688 10.636719 C 20.332031 10.917969 20.382812 11.054688 20.472656 11.332031 C 20.570312 11.613281 20.675781 11.75 20.820312 11.890625 C 20.839844 11.910156 20.859375 11.929688 20.890625 11.941406 C 20.742188 12.058594 20.644531 12.085938 20.523438 12.226562 C 20.445312 12.292969 20.351562 12.34375 20.25 12.367188 C 20.035156 12.105469 19.839844 11.824219 19.675781 11.527344 C 19.480469 11.089844 19.371094 10.621094 19.355469 10.140625 C 19.320312 9.667969 19.375 9.195312 19.519531 8.746094 C 19.636719 8.339844 19.835938 7.957031 20.109375 7.632812 C 20.378906 7.355469 20.652344 7.214844 20.980469 7.214844 Z M 23.835938 10.769531 C 24.527344 10.769531 25.363281 10.90625 26.367188 11.601562 C 26.980469 12.019531 27.457031 12.164062 28.558594 12.578125 L 28.566406 12.578125 C 29.097656 12.859375 29.410156 13.132812 29.5625 13.410156 L 29.5625 13.136719 C 29.714844 13.441406 29.726562 13.796875 29.597656 14.113281 C 29.339844 14.761719 28.519531 15.453125 27.382812 15.867188 L 27.382812 15.871094 C 26.824219 16.152344 26.335938 16.566406 25.765625 16.839844 C 25.191406 17.121094 24.542969 17.449219 23.660156 17.398438 C 23.339844 17.414062 23.023438 17.367188 22.726562 17.257812 C 22.496094 17.132812 22.269531 16.996094 22.054688 16.847656 C 21.648438 16.566406 21.296875 16.152344 20.777344 15.878906 L 20.777344 15.867188 L 20.769531 15.867188 C 19.933594 15.355469 19.484375 14.800781 19.339844 14.386719 C 19.195312 13.828125 19.328125 13.410156 19.742188 13.136719 C 20.207031 12.855469 20.535156 12.574219 20.746094 12.4375 C 20.964844 12.285156 21.046875 12.226562 21.113281 12.164062 L 21.117188 12.164062 L 21.117188 12.160156 C 21.472656 11.738281 22.027344 11.179688 22.867188 10.90625 C 23.15625 10.832031 23.480469 10.769531 23.835938 10.769531 Z M 29.667969 15.234375 C 30.414062 18.183594 32.160156 22.472656 33.285156 24.550781 C 33.878906 25.664062 35.066406 28.007812 35.578125 30.851562 C 35.902344 30.839844 36.265625 30.890625 36.648438 30.984375 C 37.992188 27.503906 35.511719 23.761719 34.378906 22.722656 C 33.921875 22.304688 33.894531 22.023438 34.121094 22.023438 C 35.351562 23.136719 36.964844 25.300781 37.550781 27.769531 C 37.824219 28.882812 37.886719 30.070312 37.597656 31.246094 C 37.734375 31.304688 37.878906 31.371094 38.023438 31.386719 C 40.171875 32.5 40.964844 33.339844 40.585938 34.589844 L 40.585938 34.5 C 40.460938 34.492188 40.335938 34.5 40.210938 34.5 L 40.175781 34.5 C 40.492188 33.527344 39.796875 32.78125 37.957031 31.949219 C 36.050781 31.117188 34.527344 31.25 34.269531 32.917969 C 34.253906 33.007812 34.242188 33.054688 34.234375 33.199219 C 34.089844 33.246094 33.945312 33.308594 33.796875 33.332031 C 32.902344 33.890625 32.417969 34.726562 32.144531 35.804688 C 31.875 36.917969 31.792969 38.214844 31.71875 39.699219 L 31.71875 39.707031 C 31.675781 40.402344 31.363281 41.453125 31.054688 42.519531 C 27.929688 44.753906 23.597656 45.722656 19.914062 43.214844 C 19.679688 42.8125 19.398438 42.4375 19.074219 42.105469 C 18.917969 41.84375 18.726562 41.613281 18.503906 41.410156 C 18.882812 41.410156 19.207031 41.347656 19.472656 41.269531 C 19.769531 41.132812 20.003906 40.882812 20.125 40.574219 C 20.351562 40.019531 20.125 39.121094 19.40625 38.152344 C 18.6875 37.179688 17.464844 36.078125 15.679688 34.984375 C 14.367188 34.148438 13.628906 33.171875 13.285156 32.074219 C 12.941406 30.960938 12.988281 29.816406 13.253906 28.648438 C 13.765625 26.417969 15.074219 24.253906 15.910156 22.890625 C 16.132812 22.757812 15.984375 23.171875 15.058594 24.921875 C 14.234375 26.484375 12.683594 30.121094 14.804688 32.949219 C 14.882812 30.886719 15.339844 28.855469 16.152344 26.957031 C 17.328125 24.296875 19.785156 19.660156 19.976562 15.984375 C 20.078125 16.058594 20.429688 16.265625 20.578125 16.402344 C 21.035156 16.679688 21.371094 17.097656 21.808594 17.371094 C 22.246094 17.792969 22.800781 18.070312 23.632812 18.070312 C 23.714844 18.078125 23.789062 18.082031 23.863281 18.082031 C 24.722656 18.082031 25.382812 17.804688 25.941406 17.523438 C 26.542969 17.246094 27.023438 16.828125 27.480469 16.691406 L 27.492188 16.691406 C 28.464844 16.410156 29.230469 15.855469 29.667969 15.234375 Z M 34.222656 33.894531 C 34.296875 35.144531 34.933594 36.488281 36.058594 36.765625 C 37.285156 37.042969 39.046875 36.070312 39.789062 35.171875 L 40.230469 35.148438 C 40.886719 35.136719 41.429688 35.171875 41.992188 35.707031 L 42 35.714844 C 42.433594 36.128906 42.636719 36.820312 42.816406 37.539062 C 42.992188 38.371094 43.136719 39.164062 43.667969 39.761719 C 44.679688 40.859375 45.011719 41.648438 44.992188 42.136719 L 44.996094 42.121094 L 44.996094 42.160156 L 44.992188 42.132812 C 44.960938 42.679688 44.605469 42.957031 43.953125 43.371094 C 42.640625 44.207031 40.316406 44.855469 38.835938 46.644531 C 37.546875 48.179688 35.980469 49.019531 34.59375 49.125 C 33.210938 49.234375 32.015625 48.707031 31.316406 47.253906 L 31.304688 47.246094 C 30.867188 46.414062 31.054688 45.113281 31.421875 43.726562 C 31.789062 42.335938 32.3125 40.925781 32.386719 39.773438 C 32.460938 38.289062 32.542969 36.992188 32.792969 35.996094 C 33.042969 35.027344 33.433594 34.335938 34.128906 33.945312 L 34.222656 33.898438 Z M 11.691406 33.996094 L 11.710938 33.996094 C 11.824219 33.996094 11.929688 34.007812 12.039062 34.027344 C 12.824219 34.140625 13.511719 34.722656 14.171875 35.59375 L 16.066406 39.058594 L 16.074219 39.066406 C 16.578125 40.175781 17.644531 41.285156 18.550781 42.476562 C 19.453125 43.722656 20.152344 44.832031 20.070312 45.746094 L 20.070312 45.761719 C 19.949219 47.308594 19.070312 48.152344 17.726562 48.457031 C 16.382812 48.738281 14.558594 48.460938 12.734375 47.488281 C 10.71875 46.371094 8.324219 46.511719 6.785156 46.234375 C 6.015625 46.097656 5.511719 45.820312 5.277344 45.402344 C 5.046875 44.984375 5.042969 44.148438 5.535156 42.839844 L 5.535156 42.832031 L 5.539062 42.824219 C 5.78125 42.128906 5.601562 41.257812 5.480469 40.496094 C 5.367188 39.660156 5.308594 39.015625 5.570312 38.539062 C 5.902344 37.839844 6.394531 37.703125 7.007812 37.425781 C 7.621094 37.144531 8.339844 37.007812 8.914062 36.449219 L 8.917969 36.449219 L 8.917969 36.445312 C 9.453125 35.886719 9.847656 35.191406 10.308594 34.699219 C 10.707031 34.277344 11.101562 33.996094 11.691406 33.996094 Z M 26.605469 15.09375 C 25.699219 15.511719 24.636719 16.207031 23.507812 16.207031 C 22.378906 16.207031 21.484375 15.652344 20.839844 15.238281 C 20.519531 14.957031 20.257812 14.679688 20.0625 14.539062 C 19.722656 14.261719 19.761719 13.847656 19.910156 13.847656 C 20.136719 13.878906 20.175781 14.125 20.324219 14.261719 C 20.523438 14.398438 20.769531 14.679688 21.074219 14.957031 C 21.679688 15.371094 22.488281 15.929688 23.503906 15.929688 C 24.515625 15.929688 25.699219 15.371094 26.417969 14.957031 C 26.824219 14.675781 27.34375 14.261719 27.765625 13.984375 C 28.089844 13.703125 28.078125 13.429688 28.347656 13.429688 C 28.613281 13.460938 28.417969 13.707031 28.042969 14.121094 C 27.578125 14.46875 27.101562 14.796875 26.605469 15.097656 Z M 24.351562 11.796875 L 24.351562 11.75 C 24.339844 11.707031 24.378906 11.664062 24.414062 11.644531 C 24.566406 11.554688 24.789062 11.589844 24.953125 11.652344 C 25.085938 11.652344 25.289062 11.792969 25.265625 11.933594 C 25.253906 12.039062 25.089844 12.074219 24.984375 12.074219 C 24.871094 12.074219 24.792969 11.984375 24.691406 11.929688 C 24.582031 11.894531 24.386719 11.914062 24.351562 11.796875 Z M 23.203125 11.796875 C 23.164062 11.917969 22.96875 11.898438 22.859375 11.933594 C 22.761719 11.984375 22.679688 12.074219 22.566406 12.074219 C 22.460938 12.074219 22.296875 12.035156 22.285156 11.933594 C 22.261719 11.796875 22.464844 11.65625 22.597656 11.65625 C 22.761719 11.589844 22.980469 11.558594 23.136719 11.644531 C 23.175781 11.664062 23.210938 11.707031 23.199219 11.75 L 23.199219 11.792969 L 23.203125 11.792969 Z M 23.203125 11.796875 "/>
</g>
</svg>
