<?xml version="1.0" encoding="UTF-8"?>
<svg xmlns="http://www.w3.org/2000/svg" xmlns:xlink="http://www.w3.org/1999/xlink" width="50px" height="px" viewBox="0 0 50 50" version="1.1">
<g id="surface1">
<path style=" stroke:none;fill-rule:nonzero;fill:rgb(100%,100%,100%);fill-opacity:1;" d="M 48.242188 9.191406 C 46.835938 9.785156 46.597656 9.835938 44.757812 9.964844 C 43.402344 10.058594 43.179688 10.085938 42.234375 10.402344 C 40.671875 10.914062 39.328125 11.964844 38.023438 13.714844 C 37.410156 14.542969 35.421875 17.699219 35.421875 17.855469 C 35.421875 17.976562 34.070312 19.933594 33.515625 20.605469 C 32.320312 22.089844 31.265625 22.855469 29.058594 23.917969 C 27.453125 24.667969 26.507812 25.011719 20.511719 26.996094 C 18.277344 27.730469 16.070312 28.535156 15.582031 28.796875 C 13.804688 29.730469 12.425781 30.953125 10.992188 32.832031 C 8.902344 35.582031 8.964844 35.570312 4.652344 34.804688 C 4.1875 34.75 3.71875 34.707031 3.246094 34.675781 C 1.90625 34.570312 1.117188 34.765625 0.472656 35.371094 L 0 35.820312 L 0.367188 36.003906 C 0.566406 36.105469 1.105469 36.488281 1.539062 36.832031 C 1.984375 37.183594 2.496094 37.554688 2.683594 37.644531 C 2.867188 37.738281 3.039062 37.828125 3.066406 37.855469 C 3.089844 37.882812 2.878906 38.210938 2.589844 38.589844 C 1.683594 39.800781 1.355469 40.40625 1.394531 40.773438 C 1.433594 41.117188 1.460938 41.128906 2.289062 41.128906 C 3.367188 41.117188 4.011719 41.011719 4.917969 40.695312 C 6.269531 40.210938 9.203125 38.738281 10.714844 37.777344 C 12.332031 36.738281 14.292969 35.699219 14.792969 35.609375 C 14.960938 35.566406 15.527344 35.460938 16.027344 35.371094 C 17.238281 35.148438 19.078125 35.171875 21.417969 35.476562 C 21.644531 35.503906 22.195312 35.570312 22.667969 35.609375 C 23.140625 35.660156 23.566406 35.726562 23.613281 35.765625 C 23.667969 35.792969 24.601562 35.84375 25.695312 35.882812 C 27.640625 35.9375 27.992188 35.898438 28.402344 35.488281 C 28.664062 35.210938 29.203125 34.175781 29.441406 33.4375 C 29.875 32.097656 30.308594 31.519531 30.203125 32.414062 C 29.964844 34.425781 29.53125 35.9375 28.714844 37.433594 C 28.175781 38.476562 27.335938 39.710938 26.769531 40.339844 C 26.101562 41.066406 26.113281 41.089844 26.953125 40.996094 C 28.242188 40.867188 30.019531 40.171875 31.320312 39.289062 C 33.042969 38.117188 34.753906 35.765625 35.882812 32.976562 C 36.105469 32.414062 36.339844 32.519531 36.265625 33.148438 C 36.238281 33.347656 36.183594 33.804688 36.144531 34.1875 L 36.082031 34.871094 L 36.816406 34.449219 C 38.550781 33.449219 39.761719 31.820312 41.246094 28.441406 C 41.722656 27.363281 43.074219 22.355469 43.484375 20.160156 C 43.632812 19.425781 43.820312 18.699219 44.046875 17.988281 C 44.3125 17.09375 44.457031 16.832031 45.046875 16.199219 C 45.429688 15.804688 46.351562 15.042969 47.085938 14.515625 C 48.585938 13.464844 49.070312 12.953125 49.558594 12.007812 C 49.992188 11.136719 50.148438 9.652344 49.832031 9.179688 C 49.558594 8.757812 49.242188 8.769531 48.242188 9.191406 Z M 48.242188 9.191406 "/>
</g>
</svg>
