<?xml version="1.0" encoding="UTF-8"?>
<svg xmlns="http://www.w3.org/2000/svg" xmlns:xlink="http://www.w3.org/1999/xlink" width="50px" height="px" viewBox="0 0 50 50" version="1.1">
<g id="surface1">
<path style=" stroke:none;fill-rule:nonzero;fill:rgb(100%,100%,100%);fill-opacity:1;" d="M 35.820312 19.90625 C 33.183594 8.28125 26.960938 4.460938 26.292969 3 C 25.707031 2.179688 25.1875 1.011719 24.761719 0 C 24.683594 1.03125 24.644531 1.425781 23.671875 2.464844 C 22.164062 3.644531 14.425781 10.136719 13.796875 23.339844 C 13.207031 35.660156 22.691406 42.996094 23.980469 43.933594 L 24.125 44.039062 C 24.394531 46.019531 24.621094 48.007812 24.8125 50 L 25.816406 50 C 26.050781 47.851562 26.40625 45.714844 26.878906 43.605469 C 27.746094 42.988281 28.136719 42.640625 28.648438 42.160156 C 33.554688 37.621094 36.3125 31.210938 36.230469 24.527344 C 36.25 22.832031 36.015625 21.066406 35.820312 19.90625 Z M 24.703125 36.980469 C 24.703125 36.980469 24.703125 19.707031 25.273438 19.707031 C 25.71875 19.707031 26.296875 41.988281 26.296875 41.988281 C 25.503906 41.894531 24.703125 38.324219 24.703125 36.980469 Z M 24.703125 36.980469 "/>
</g>
</svg>
