<?xml version="1.0" encoding="UTF-8"?>
<svg xmlns="http://www.w3.org/2000/svg" xmlns:xlink="http://www.w3.org/1999/xlink" width="50px" height="px" viewBox="0 0 50 50" version="1.1">
<g id="surface1">
<path style=" stroke:none;fill-rule:nonzero;fill:rgb(100%,100%,100%);fill-opacity:1;" d="M 34.175781 11.460938 C 33.9375 11.460938 33.773438 11.488281 33.605469 11.527344 L 33.605469 11.554688 L 33.636719 11.554688 C 33.746094 11.773438 33.941406 11.929688 34.082031 12.125 C 34.195312 12.347656 34.289062 12.570312 34.402344 12.792969 L 34.429688 12.761719 C 34.628906 12.621094 34.722656 12.402344 34.722656 12.066406 C 34.640625 11.96875 34.628906 11.871094 34.554688 11.773438 C 34.472656 11.636719 34.292969 11.566406 34.179688 11.457031 Z M 12.019531 38.949219 L 10.089844 38.949219 C 10.035156 35.878906 9.847656 32.8125 9.527344 29.761719 L 9.511719 29.761719 L 6.574219 38.949219 L 5.105469 38.949219 L 2.1875 29.761719 L 2.167969 29.761719 C 1.9375 32.816406 1.804688 35.882812 1.761719 38.949219 L 0 38.949219 C 0.113281 34.851562 0.398438 31.011719 0.855469 27.425781 L 3.25 27.425781 L 6.03125 35.894531 L 6.046875 35.894531 L 8.855469 27.425781 L 11.136719 27.425781 C 11.640625 31.625 11.933594 35.46875 12.027344 38.949219 Z M 20.390625 30.449219 C 19.601562 34.707031 18.566406 37.808594 17.28125 39.738281 C 16.277344 41.230469 15.175781 41.976562 13.984375 41.976562 C 13.664062 41.976562 13.273438 41.878906 12.804688 41.6875 L 12.804688 40.660156 C 13.035156 40.695312 13.304688 40.710938 13.609375 40.710938 C 14.167969 40.710938 14.613281 40.554688 14.957031 40.25 C 15.367188 39.875 15.570312 39.453125 15.570312 38.988281 C 15.570312 38.667969 15.410156 38.011719 15.089844 37.023438 L 12.980469 30.449219 L 14.875 30.449219 L 16.390625 35.363281 C 16.730469 36.480469 16.875 37.261719 16.816406 37.703125 C 17.648438 35.488281 18.230469 33.066406 18.554688 30.449219 Z M 46.066406 38.949219 L 40.585938 38.949219 L 40.585938 27.425781 L 42.429688 27.425781 L 42.429688 37.53125 L 46.066406 37.53125 Z M 39.148438 39.230469 L 37.035156 38.1875 C 37.222656 38.027344 37.402344 37.859375 37.566406 37.667969 C 38.464844 36.613281 38.914062 35.046875 38.914062 32.972656 C 38.914062 29.160156 37.417969 27.253906 34.425781 27.253906 C 32.957031 27.253906 31.8125 27.734375 30.988281 28.703125 C 30.089844 29.761719 29.640625 31.320312 29.640625 33.382812 C 29.640625 35.40625 30.039062 36.894531 30.835938 37.839844 C 31.566406 38.695312 32.664062 39.121094 34.136719 39.121094 C 34.683594 39.121094 35.191406 39.050781 35.644531 38.917969 L 38.40625 40.523438 L 39.15625 39.230469 Z M 32.292969 36.640625 C 31.824219 35.890625 31.589844 34.683594 31.589844 33.023438 C 31.589844 30.121094 32.472656 28.671875 34.234375 28.671875 C 35.160156 28.671875 35.839844 29.019531 36.269531 29.710938 C 36.738281 30.464844 36.972656 31.664062 36.972656 33.300781 C 36.972656 36.226562 36.085938 37.695312 34.324219 37.695312 C 33.398438 37.695312 32.722656 37.347656 32.289062 36.652344 Z M 28.835938 35.757812 C 28.835938 36.734375 28.480469 37.539062 27.761719 38.164062 C 27.046875 38.789062 26.089844 39.101562 24.878906 39.101562 C 23.746094 39.101562 22.664062 38.742188 21.601562 38.027344 L 22.097656 37.039062 C 23.007812 37.496094 23.832031 37.722656 24.574219 37.722656 C 25.265625 37.722656 25.808594 37.570312 26.207031 37.261719 C 26.609375 36.960938 26.839844 36.484375 26.832031 35.980469 C 26.832031 35.292969 26.351562 34.710938 25.480469 34.222656 C 24.671875 33.777344 23.058594 32.851562 23.058594 32.851562 C 22.179688 32.210938 21.742188 31.527344 21.742188 30.398438 C 21.742188 29.460938 22.070312 28.710938 22.722656 28.140625 C 23.378906 27.558594 24.222656 27.273438 25.261719 27.273438 C 26.328125 27.273438 27.304688 27.558594 28.179688 28.128906 L 27.734375 29.121094 C 27.035156 28.8125 26.28125 28.652344 25.519531 28.640625 C 24.929688 28.640625 24.472656 28.785156 24.15625 29.070312 C 23.832031 29.339844 23.640625 29.738281 23.640625 30.164062 C 23.640625 30.847656 24.128906 31.433594 25.027344 31.933594 C 25.847656 32.382812 27.5 33.328125 27.5 33.328125 C 28.402344 33.964844 28.851562 34.640625 28.851562 35.761719 Z M 48.382812 23.566406 C 47.269531 23.535156 46.402344 23.648438 45.679688 23.957031 C 45.472656 24.039062 45.140625 24.039062 45.109375 24.304688 C 45.226562 24.414062 45.242188 24.597656 45.339844 24.75 C 45.507812 25.027344 45.792969 25.402344 46.058594 25.597656 C 46.351562 25.828125 46.644531 26.046875 46.949219 26.242188 C 47.492188 26.578125 48.105469 26.773438 48.636719 27.109375 C 48.941406 27.304688 49.246094 27.554688 49.554688 27.761719 C 49.707031 27.867188 49.804688 28.054688 50 28.121094 L 50 28.078125 C 49.902344 27.953125 49.875 27.773438 49.78125 27.632812 C 49.640625 27.492188 49.503906 27.367188 49.363281 27.230469 C 48.957031 26.691406 48.46875 26.21875 47.917969 25.824219 C 47.472656 25.519531 46.496094 25.097656 46.3125 24.585938 L 46.285156 24.554688 C 46.589844 24.527344 46.953125 24.417969 47.242188 24.335938 C 47.714844 24.210938 48.148438 24.238281 48.640625 24.113281 C 48.859375 24.058594 49.082031 23.988281 49.304688 23.917969 L 49.304688 23.792969 C 49.054688 23.542969 48.867188 23.203125 48.609375 22.972656 C 47.890625 22.339844 47.121094 21.765625 46.308594 21.257812 C 45.871094 20.976562 45.320312 20.796875 44.859375 20.558594 C 44.691406 20.476562 44.414062 20.433594 44.316406 20.296875 C 44.066406 19.992188 43.921875 19.585938 43.742188 19.226562 C 43.335938 18.429688 42.953125 17.625 42.605469 16.800781 C 42.355469 16.257812 42.203125 15.710938 41.894531 15.210938 C 40.457031 12.84375 38.902344 11.410156 36.507812 10.003906 C 35.992188 9.710938 35.378906 9.585938 34.726562 9.433594 C 34.378906 9.417969 34.027344 9.390625 33.683594 9.378906 C 33.453125 9.277344 33.234375 9.015625 33.039062 8.886719 C 32.246094 8.386719 30.195312 7.304688 29.613281 8.738281 C 29.238281 9.640625 30.167969 10.535156 30.492188 10.992188 C 30.730469 11.308594 31.035156 11.675781 31.199219 12.035156 C 31.296875 12.273438 31.324219 12.523438 31.421875 12.773438 C 31.644531 13.386719 31.855469 14.070312 32.144531 14.644531 C 32.296875 14.933594 32.464844 15.242188 32.660156 15.503906 C 32.773438 15.65625 32.964844 15.726562 33.007812 15.976562 C 32.8125 16.261719 32.800781 16.671875 32.6875 17.019531 C 32.1875 18.597656 32.382812 20.546875 33.089844 21.707031 C 33.316406 22.050781 33.847656 22.820312 34.554688 22.523438 C 35.179688 22.273438 35.042969 21.484375 35.222656 20.785156 C 35.265625 20.617188 35.238281 20.507812 35.324219 20.394531 L 35.324219 20.425781 C 35.519531 20.820312 35.714844 21.191406 35.894531 21.582031 C 36.324219 22.265625 37.074219 22.976562 37.699219 23.449219 C 38.035156 23.699219 38.296875 24.132812 38.714844 24.285156 L 38.714844 24.242188 L 38.683594 24.242188 C 38.59375 24.121094 38.476562 24.066406 38.363281 23.964844 C 38.097656 23.707031 37.855469 23.429688 37.632812 23.132812 C 37.046875 22.332031 36.527344 21.484375 36.078125 20.597656 C 35.847656 20.160156 35.65625 19.6875 35.472656 19.257812 C 35.390625 19.089844 35.390625 18.839844 35.25 18.757812 C 35.042969 19.058594 34.734375 19.324219 34.582031 19.699219 C 34.320312 20.300781 34.292969 21.039062 34.191406 21.804688 C 34.136719 21.820312 34.164062 21.804688 34.136719 21.832031 C 33.691406 21.726562 33.539062 21.261719 33.371094 20.875 C 32.953125 19.886719 32.886719 18.296875 33.246094 17.15625 C 33.34375 16.863281 33.761719 15.945312 33.59375 15.664062 C 33.507812 15.398438 33.230469 15.246094 33.078125 15.035156 C 32.882812 14.753906 32.714844 14.457031 32.578125 14.144531 C 32.246094 13.363281 32.078125 12.503906 31.714844 11.722656 C 31.550781 11.363281 31.257812 10.984375 31.019531 10.652344 C 30.757812 10.277344 30.464844 10.015625 30.253906 9.570312 C 30.183594 9.417969 30.085938 9.167969 30.199219 9 C 30.226562 8.886719 30.285156 8.84375 30.394531 8.8125 C 30.578125 8.664062 31.089844 8.859375 31.273438 8.941406 C 31.789062 9.148438 32.222656 9.347656 32.652344 9.636719 C 32.847656 9.773438 33.058594 10.039062 33.308594 10.109375 L 33.601562 10.109375 C 34.046875 10.207031 34.546875 10.136719 34.964844 10.261719 C 35.703125 10.496094 36.371094 10.84375 36.96875 11.21875 C 38.8125 12.394531 40.308594 14.039062 41.3125 15.980469 C 41.480469 16.300781 41.550781 16.597656 41.703125 16.929688 C 41.996094 17.617188 42.355469 18.308594 42.652344 18.976562 C 42.945312 19.632812 43.226562 20.300781 43.644531 20.84375 C 43.851562 21.136719 44.691406 21.289062 45.066406 21.441406 C 45.339844 21.566406 45.773438 21.679688 46.023438 21.832031 C 46.503906 22.121094 46.96875 22.457031 47.417969 22.777344 C 47.648438 22.933594 48.339844 23.285156 48.382812 23.566406 Z M 48.382812 23.566406 "/>
</g>
</svg>
