<?xml version="1.0" encoding="UTF-8"?>
<svg xmlns="http://www.w3.org/2000/svg" xmlns:xlink="http://www.w3.org/1999/xlink" width="50px" height="px" viewBox="0 0 50 50" version="1.1">
<g id="surface1">
<path style=" stroke:none;fill-rule:nonzero;fill:rgb(100%,100%,100%);fill-opacity:1;" d="M 25 0 L 3.34375 12.5 L 3.34375 37.5 L 25 50 L 46.65625 37.5 L 46.65625 12.5 Z M 37.5 34.5625 C 37.5 36.03125 36.152344 37.25 34.316406 37.25 C 33 37.25 31.5 36.71875 30.5625 35.5625 L 18.0625 20.683594 L 18.0625 34.558594 C 18.0625 36.0625 16.875 37.246094 15.410156 37.246094 L 15.25 37.246094 C 13.746094 37.246094 12.5625 35.996094 12.5625 34.558594 L 12.5625 15.4375 C 12.5625 13.96875 13.875 12.75 15.6875 12.75 C 17.035156 12.75 18.5625 13.28125 19.5 14.4375 L 31.9375 29.316406 L 31.9375 15.4375 C 31.9375 13.933594 33.1875 12.75 34.625 12.75 L 34.78125 12.75 C 36.28125 12.75 37.46875 14 37.46875 15.4375 L 37.46875 34.5625 Z M 37.5 34.5625 "/>
</g>
</svg>
