<?xml version="1.0" encoding="UTF-8"?>
<svg xmlns="http://www.w3.org/2000/svg" xmlns:xlink="http://www.w3.org/1999/xlink" width="50px" height="px" viewBox="0 0 50 50" version="1.1">
<g id="surface1">
<path style=" stroke:none;fill-rule:nonzero;fill:rgb(100%,100%,100%);fill-opacity:1;" d="M 24.996094 50 C 24.328125 50 23.660156 49.824219 23.074219 49.484375 L 16.957031 45.867188 C 16.046875 45.355469 16.492188 45.175781 16.792969 45.070312 C 18.011719 44.644531 18.257812 44.546875 19.558594 43.808594 C 19.695312 43.734375 19.871094 43.761719 20.011719 43.847656 L 24.710938 46.636719 C 24.890625 46.730469 25.101562 46.730469 25.277344 46.636719 L 43.601562 36.058594 C 43.777344 35.957031 43.882812 35.765625 43.882812 35.566406 L 43.882812 14.417969 C 43.882812 14.210938 43.773438 14.019531 43.597656 13.914062 L 25.28125 3.347656 C 25.105469 3.25 24.890625 3.25 24.714844 3.347656 L 6.40625 13.917969 C 6.230469 14.023438 6.117188 14.210938 6.117188 14.417969 L 6.117188 35.566406 C 6.117188 35.769531 6.226562 35.957031 6.40625 36.054688 L 11.425781 38.953125 C 14.148438 40.316406 15.816406 38.710938 15.816406 37.101562 L 15.816406 16.222656 C 15.816406 15.925781 16.054688 15.695312 16.351562 15.695312 L 18.671875 15.695312 C 18.960938 15.695312 19.203125 15.929688 19.203125 16.222656 L 19.203125 37.101562 C 19.203125 40.734375 17.226562 42.820312 13.777344 42.820312 C 12.722656 42.820312 11.886719 42.820312 9.558594 41.671875 L 4.75 38.90625 C 3.5625 38.214844 2.828125 36.941406 2.828125 35.566406 L 2.828125 14.417969 C 2.828125 13.046875 3.566406 11.761719 4.75 11.078125 L 23.074219 0.492188 C 24.273438 -0.164062 25.722656 -0.164062 26.921875 0.492188 L 45.242188 11.078125 C 46.429688 11.765625 47.167969 13.046875 47.167969 14.417969 L 47.167969 35.566406 C 47.167969 36.941406 46.433594 38.214844 45.242188 38.90625 L 26.921875 49.484375 C 26.339844 49.824219 25.675781 50 24.996094 50 Z M 39.789062 29.152344 C 39.789062 25.195312 37.113281 24.140625 31.484375 23.394531 C 25.792969 22.644531 25.214844 22.253906 25.214844 20.921875 C 25.214844 19.824219 25.703125 18.355469 29.917969 18.355469 C 33.683594 18.355469 35.070312 19.164062 35.640625 21.703125 C 35.695312 21.945312 35.910156 22.117188 36.15625 22.117188 L 38.535156 22.117188 C 38.679688 22.113281 38.820312 22.054688 38.921875 21.949219 C 39.023438 21.835938 39.074219 21.6875 39.058594 21.539062 C 38.691406 17.167969 35.789062 15.132812 29.917969 15.132812 C 24.695312 15.132812 21.578125 17.335938 21.578125 21.035156 C 21.578125 25.042969 24.675781 26.152344 29.691406 26.648438 C 35.691406 27.234375 36.15625 28.113281 36.15625 29.292969 C 36.15625 31.339844 34.511719 32.210938 30.652344 32.210938 C 25.804688 32.210938 24.738281 30.996094 24.378906 28.582031 C 24.339844 28.324219 24.113281 28.132812 23.851562 28.136719 L 21.484375 28.136719 C 21.34375 28.132812 21.207031 28.1875 21.109375 28.289062 C 21.007812 28.386719 20.953125 28.523438 20.953125 28.664062 C 20.953125 31.75 22.632812 35.429688 30.652344 35.429688 C 36.460938 35.429688 39.789062 33.144531 39.789062 29.152344 Z M 39.789062 29.152344 "/>
</g>
</svg>
