<?xml version="1.0" encoding="UTF-8"?>
<svg xmlns="http://www.w3.org/2000/svg" xmlns:xlink="http://www.w3.org/1999/xlink" width="50px" height="px" viewBox="0 0 50 50" version="1.1">
<g id="surface1">
<path style=" stroke:none;fill-rule:nonzero;fill:rgb(90.196078%,32.156863%,17.254902%);fill-opacity:1;" d="M 25 0 C 11.195312 0 0 11.191406 0 25 C 0 38.804688 11.195312 50 25 50 C 38.804688 50 50 38.804688 50 25 C 50 11.191406 38.804688 0 25 0 Z M 25 46.792969 C 21.074219 46.792969 17.886719 44.167969 17.886719 40.929688 L 32.113281 40.929688 C 32.113281 44.164062 28.929688 46.789062 25 46.789062 Z M 36.75 38.988281 L 13.25 38.988281 L 13.25 34.726562 L 36.75 34.726562 Z M 36.667969 32.535156 L 13.316406 32.535156 C 13.238281 32.445312 13.160156 32.355469 13.082031 32.265625 C 10.675781 29.347656 10.109375 27.820312 9.5625 26.265625 C 9.550781 26.214844 12.480469 26.863281 14.550781 27.332031 C 14.550781 27.332031 15.621094 27.578125 17.179688 27.863281 C 15.679688 26.105469 14.792969 23.871094 14.792969 21.589844 C 14.792969 16.578125 18.636719 12.199219 17.25 8.660156 C 18.601562 8.769531 20.042969 11.507812 20.140625 15.789062 C 21.574219 13.808594 22.175781 10.183594 22.175781 7.964844 C 22.175781 5.667969 23.691406 2.996094 25.203125 2.90625 C 23.855469 5.132812 25.554688 7.039062 27.066406 11.773438 C 27.632812 13.550781 27.558594 16.542969 27.996094 18.441406 C 28.144531 14.5 28.820312 8.75 31.320312 6.765625 C 30.21875 9.265625 31.484375 12.394531 32.351562 13.898438 C 33.746094 16.324219 34.597656 18.164062 34.597656 21.640625 C 34.585938 23.929688 33.769531 26.140625 32.285156 27.882812 C 33.933594 27.570312 35.074219 27.292969 35.074219 27.292969 L 40.433594 26.246094 C 40.433594 26.246094 39.65625 29.449219 36.664062 32.535156 Z M 36.667969 32.535156 "/>
</g>
</svg>
