<?xml version="1.0" encoding="UTF-8"?>
<svg xmlns="http://www.w3.org/2000/svg" xmlns:xlink="http://www.w3.org/1999/xlink" width="50px" height="px" viewBox="0 0 50 50" version="1.1">
<g id="surface1">
<path style=" stroke:none;fill-rule:nonzero;fill:rgb(38.039216%,85.490196%,98.431373%);fill-opacity:1;" d="M 29.644531 25.007812 C 29.644531 27.582031 27.5625 29.664062 24.988281 29.667969 C 22.417969 29.667969 20.332031 27.582031 20.332031 25.007812 C 20.332031 22.4375 22.414062 20.351562 24.988281 20.351562 C 27.558594 20.351562 29.644531 22.4375 29.644531 25.007812 Z M 35.164062 2.738281 C 32.359375 2.738281 28.691406 4.738281 24.980469 8.199219 C 21.269531 4.757812 17.601562 2.777344 14.796875 2.777344 C 13.945312 2.777344 13.167969 2.972656 12.492188 3.359375 C 9.628906 5.011719 8.988281 10.160156 10.464844 16.617188 C 4.125 18.578125 0 21.707031 0 25.007812 C 0 28.320312 4.144531 31.460938 10.507812 33.402344 C 9.039062 39.890625 9.695312 45.046875 12.566406 46.695312 C 13.230469 47.085938 14.003906 47.269531 14.859375 47.269531 C 17.664062 47.269531 21.332031 45.269531 25.042969 41.800781 C 28.753906 45.246094 32.421875 47.226562 35.226562 47.226562 C 36.078125 47.226562 36.855469 47.039062 37.527344 46.652344 C 40.390625 45.003906 41.035156 39.855469 39.554688 33.390625 C 45.875 31.449219 50 28.3125 50 25.007812 C 50 21.695312 45.855469 18.554688 39.492188 16.609375 C 40.960938 10.128906 40.304688 4.96875 37.433594 3.316406 C 36.742188 2.925781 35.957031 2.726562 35.160156 2.738281 Z M 35.152344 5.007812 L 35.152344 5.019531 C 35.621094 5.019531 35.996094 5.113281 36.316406 5.285156 C 37.703125 6.082031 38.304688 9.109375 37.835938 13.003906 C 37.722656 13.960938 37.539062 14.972656 37.316406 16.003906 C 35.183594 15.488281 33.023438 15.113281 30.839844 14.890625 C 29.542969 13.097656 28.128906 11.394531 26.601562 9.792969 C 29.917969 6.707031 33.035156 5.015625 35.152344 5.011719 Z M 14.796875 5.050781 C 16.90625 5.050781 20.035156 6.734375 23.359375 9.800781 C 21.929688 11.300781 20.507812 13.003906 19.152344 14.886719 C 16.96875 15.109375 14.800781 15.484375 12.667969 16.007812 C 12.441406 15.03125 12.265625 14.042969 12.136719 13.050781 C 11.660156 9.160156 12.25 6.132812 13.625 5.328125 C 14.019531 5.140625 14.457031 5.0625 14.796875 5.050781 Z M 24.96875 11.402344 C 25.917969 12.378906 26.863281 13.472656 27.800781 14.664062 C 26.886719 14.621094 25.949219 14.589844 25 14.589844 C 24.042969 14.589844 23.09375 14.613281 22.167969 14.664062 C 23.082031 13.472656 24.03125 12.378906 24.96875 11.402344 Z M 25 16.875 C 26.542969 16.875 28.078125 16.945312 29.585938 17.070312 C 30.433594 18.28125 31.257812 19.574219 32.050781 20.945312 C 32.828125 22.277344 33.53125 23.632812 34.171875 24.996094 C 33.53125 26.363281 32.828125 27.726562 32.0625 29.058594 C 31.269531 30.433594 30.453125 31.742188 29.605469 32.957031 C 26.546875 33.222656 23.472656 33.226562 20.414062 32.964844 C 19.539062 31.710938 18.714844 30.417969 17.949219 29.089844 C 17.171875 27.757812 16.46875 26.402344 15.828125 25.039062 C 16.472656 23.652344 17.175781 22.292969 17.9375 20.964844 C 18.730469 19.589844 19.546875 18.289062 20.394531 17.074219 C 21.925781 16.941406 23.464844 16.871094 25 16.871094 Z M 17.425781 17.402344 C 16.925781 18.191406 16.425781 18.992188 15.960938 19.820312 C 15.492188 20.632812 15.054688 21.449219 14.636719 22.265625 C 14.085938 20.898438 13.617188 19.539062 13.230469 18.210938 C 14.5625 17.898438 15.96875 17.621094 17.425781 17.40625 Z M 32.550781 17.402344 C 34 17.617188 35.394531 17.882812 36.730469 18.210938 C 36.355469 19.527344 35.886719 20.882812 35.355469 22.238281 C 34.507812 20.578125 33.570312 18.964844 32.554688 17.402344 Z M 38.933594 18.808594 C 39.941406 19.121094 40.898438 19.472656 41.796875 19.847656 C 45.40625 21.390625 47.738281 23.40625 47.738281 25.007812 C 47.730469 26.605469 45.394531 28.632812 41.789062 30.164062 C 40.914062 30.539062 39.953125 30.875 38.964844 31.191406 C 38.339844 29.070312 37.574219 26.996094 36.671875 24.980469 C 37.609375 22.863281 38.359375 20.792969 38.933594 18.804688 Z M 11.027344 18.820312 C 11.605469 20.820312 12.371094 22.894531 13.320312 25.027344 C 12.425781 27.03125 11.667969 29.09375 11.054688 31.203125 C 10.046875 30.890625 9.089844 30.539062 8.203125 30.160156 C 4.59375 28.625 2.261719 26.605469 2.261719 25.007812 C 2.261719 23.40625 4.59375 21.378906 8.203125 19.847656 C 9.078125 19.472656 10.035156 19.136719 11.027344 18.820312 Z M 35.355469 27.734375 C 35.910156 29.105469 36.378906 30.46875 36.765625 31.792969 C 35.429688 32.121094 34.023438 32.398438 32.566406 32.605469 C 33.578125 31.03125 34.511719 29.40625 35.359375 27.734375 Z M 14.636719 27.777344 C 15.054688 28.59375 15.492188 29.410156 15.972656 30.226562 C 16.449219 31.039062 16.941406 31.832031 17.441406 32.605469 C 16.035156 32.402344 14.640625 32.132812 13.261719 31.800781 C 13.636719 30.488281 14.105469 29.132812 14.636719 27.773438 Z M 37.332031 34 C 37.566406 35.027344 37.75 36.015625 37.863281 36.964844 C 38.339844 40.855469 37.75 43.882812 36.375 44.691406 C 36.070312 44.878906 35.671875 44.957031 35.203125 44.957031 C 33.09375 44.957031 29.964844 43.273438 26.640625 40.207031 C 28.070312 38.707031 29.492188 37.007812 30.847656 35.121094 C 33.152344 34.878906 35.335938 34.496094 37.332031 33.996094 Z M 12.6875 34.019531 C 14.6875 34.507812 16.867188 34.886719 19.160156 35.128906 C 20.535156 37.015625 21.960938 38.726562 23.398438 40.226562 C 20.078125 43.316406 16.957031 45.007812 14.835938 45.007812 C 14.4375 45.007812 14.042969 44.914062 13.683594 44.730469 C 12.296875 43.941406 11.695312 40.910156 12.164062 37.015625 C 12.277344 36.058594 12.460938 35.050781 12.683594 34.019531 Z M 22.1875 35.355469 C 23.105469 35.394531 24.042969 35.425781 24.988281 35.425781 C 25.949219 35.425781 26.894531 35.402344 27.824219 35.355469 C 26.90625 36.546875 25.957031 37.636719 25.019531 38.613281 C 24.074219 37.636719 23.125 36.546875 22.1875 35.355469 Z M 22.1875 35.355469 "/>
</g>
</svg>
