<?xml version="1.0" encoding="UTF-8"?>
<svg xmlns="http://www.w3.org/2000/svg" xmlns:xlink="http://www.w3.org/1999/xlink" width="50px" height="px" viewBox="0 0 50 50" version="1.1">
<g id="surface1">
<path style=" stroke:none;fill-rule:nonzero;fill:rgb(84.705882%,17.254902%,12.54902%);fill-opacity:1;" d="M 2.421875 20.585938 C 5.039062 21.835938 19.492188 27.65625 21.757812 28.75 C 24.023438 29.84375 25.664062 29.84375 28.554688 28.359375 C 31.445312 26.835938 45.039062 21.289062 47.65625 19.921875 C 48.984375 19.21875 49.570312 18.671875 49.570312 18.203125 L 49.570312 13.320312 C 49.570312 12.8125 48.90625 12.382812 47.617188 11.914062 C 45.078125 10.976562 31.5625 5.625 28.984375 4.648438 C 26.40625 3.710938 25.351562 3.75 22.304688 4.84375 C 19.257812 5.9375 4.921875 11.5625 2.34375 12.578125 C 1.09375 13.085938 0.390625 13.515625 0.390625 14.023438 L 0.3125 14.023438 L 0.3125 18.984375 C 0.390625 19.453125 1.132812 19.960938 2.421875 20.585938 Z M 26.015625 21.289062 L 18.085938 18.007812 L 29.453125 16.25 Z M 43.242188 13.476562 L 36.523438 16.132812 L 35.78125 16.40625 L 29.0625 13.75 L 36.523438 10.820312 Z M 23.476562 8.59375 L 22.382812 6.5625 L 25.820312 7.890625 L 29.0625 6.835938 L 28.203125 8.945312 L 31.484375 10.195312 L 27.226562 10.625 L 26.289062 12.929688 L 24.765625 10.390625 L 19.84375 9.960938 Z M 15 11.445312 C 18.359375 11.445312 21.09375 12.5 21.09375 13.789062 C 21.09375 15.078125 18.359375 16.132812 15 16.132812 C 11.640625 16.132812 8.90625 15.078125 8.90625 13.789062 C 8.90625 12.5 11.640625 11.445312 15 11.445312 Z M 47.65625 23.359375 C 45.039062 24.726562 31.484375 30.3125 28.59375 31.796875 C 25.703125 33.320312 24.101562 33.28125 21.835938 32.1875 C 19.570312 31.09375 5.039062 25.273438 2.460938 24.023438 C 1.132812 23.398438 0.390625 22.890625 0.390625 22.382812 L 0.390625 27.34375 C 0.390625 27.851562 1.132812 28.359375 2.421875 28.984375 C 5.039062 30.234375 19.492188 36.054688 21.757812 37.148438 C 24.023438 38.242188 25.664062 38.242188 28.554688 36.757812 C 31.445312 35.234375 45.039062 29.6875 47.65625 28.320312 C 48.984375 27.617188 49.570312 27.070312 49.570312 26.601562 L 49.570312 21.71875 C 49.570312 22.148438 48.945312 22.695312 47.65625 23.359375 Z M 47.65625 31.445312 C 45.039062 32.8125 31.484375 38.398438 28.59375 39.882812 C 25.703125 41.40625 24.101562 41.367188 21.835938 40.273438 C 19.570312 39.179688 5.039062 33.359375 2.460938 32.109375 C 1.132812 31.523438 0.390625 30.976562 0.390625 30.46875 L 0.390625 35.429688 C 0.390625 35.9375 1.132812 36.445312 2.421875 37.070312 C 5.039062 38.320312 19.492188 44.140625 21.757812 45.234375 C 24.023438 46.328125 25.664062 46.328125 28.554688 44.84375 C 31.445312 43.320312 45.039062 37.773438 47.65625 36.40625 C 48.984375 35.703125 49.570312 35.15625 49.570312 34.6875 L 49.570312 29.804688 C 49.570312 30.273438 48.945312 30.78125 47.65625 31.445312 Z M 47.65625 31.445312 "/>
</g>
</svg>
