<?xml version="1.0" encoding="UTF-8"?>
<svg xmlns="http://www.w3.org/2000/svg" xmlns:xlink="http://www.w3.org/1999/xlink" width="50px" height="px" viewBox="0 0 50 50" version="1.1">
<g id="surface1">
<path style=" stroke:none;fill-rule:nonzero;fill:rgb(100%,100%,100%);fill-opacity:1;" d="M 49.359375 22.304688 L 39.507812 5.253906 C 38.652344 3.773438 36.554688 2.554688 34.839844 2.554688 L 15.152344 2.554688 C 13.445312 2.554688 11.335938 3.773438 10.484375 5.253906 L 0.636719 22.304688 C -0.214844 23.785156 -0.214844 26.207031 0.636719 27.6875 L 10.480469 44.746094 C 11.335938 46.226562 13.433594 47.445312 15.148438 47.445312 L 34.847656 47.445312 C 36.554688 47.445312 38.648438 46.226562 39.511719 44.746094 L 49.359375 27.683594 C 50.210938 26.207031 50.210938 23.785156 49.359375 22.304688 Z M 22.867188 11.988281 C 22.867188 10.871094 23.777344 9.957031 24.894531 9.957031 C 26.011719 9.957031 26.925781 10.871094 26.925781 11.988281 L 26.925781 24.117188 C 26.859375 25.1875 25.96875 26.019531 24.898438 26.019531 C 23.824219 26.019531 22.9375 25.1875 22.867188 24.117188 Z M 24.894531 37.886719 C 17.296875 37.875 11.140625 31.714844 11.132812 24.117188 C 11.140625 19.765625 13.199219 15.671875 16.6875 13.066406 C 17.070312 12.78125 17.554688 12.660156 18.03125 12.730469 C 18.503906 12.800781 18.929688 13.054688 19.214844 13.441406 C 19.503906 13.824219 19.625 14.308594 19.554688 14.78125 C 19.484375 15.257812 19.230469 15.683594 18.847656 15.96875 C 14.503906 19.363281 13.664062 25.601562 16.949219 30.027344 C 20.234375 34.449219 26.449219 35.449219 30.953125 32.273438 C 33.535156 30.355469 35.054688 27.332031 35.050781 24.117188 C 35.042969 20.890625 33.507812 17.859375 30.914062 15.941406 C 30.113281 15.34375 29.941406 14.214844 30.535156 13.410156 C 31.128906 12.609375 32.257812 12.4375 33.0625 13.027344 C 36.578125 15.628906 38.65625 19.742188 38.660156 24.117188 C 38.65625 31.71875 32.496094 37.878906 24.894531 37.882812 Z M 24.894531 37.886719 "/>
</g>
</svg>
