<?xml version="1.0" encoding="UTF-8"?>
<svg xmlns="http://www.w3.org/2000/svg" xmlns:xlink="http://www.w3.org/1999/xlink" width="50px" height="px" viewBox="0 0 50 50" version="1.1">
<g id="surface1">
<path style=" stroke:none;fill-rule:nonzero;fill:rgb(100%,100%,100%);fill-opacity:1;" d="M 2.34375 0 C 1.046875 0 0 1.046875 0 2.34375 L 0 47.65625 C 0 48.953125 1.046875 50 2.34375 50 L 47.65625 50 C 48.953125 50 50 48.953125 50 47.65625 L 50 2.34375 C 50 1.046875 48.953125 0 47.65625 0 Z M 38.515625 20.3125 C 39.792969 20.3125 40.921875 20.390625 41.90625 20.542969 C 42.835938 20.683594 43.746094 20.921875 44.628906 21.253906 L 44.628906 26.371094 C 44.203125 26.082031 43.757812 25.828125 43.289062 25.621094 C 42.804688 25.402344 42.304688 25.222656 41.792969 25.078125 C 40.828125 24.808594 39.828125 24.667969 38.824219 24.664062 C 38.199219 24.664062 37.628906 24.722656 37.117188 24.839844 C 36.660156 24.9375 36.222656 25.109375 35.820312 25.347656 C 35.464844 25.5625 35.195312 25.824219 35 26.125 C 34.804688 26.429688 34.703125 26.785156 34.707031 27.144531 C 34.707031 27.554688 34.820312 27.921875 35.035156 28.246094 C 35.25 28.574219 35.558594 28.882812 35.957031 29.171875 C 36.355469 29.464844 36.835938 29.746094 37.40625 30.027344 C 37.976562 30.308594 38.617188 30.597656 39.335938 30.894531 C 40.316406 31.304688 41.195312 31.742188 41.972656 32.203125 C 42.753906 32.664062 43.421875 33.1875 43.980469 33.769531 C 44.539062 34.351562 44.960938 35.015625 45.257812 35.765625 C 45.554688 36.511719 45.703125 37.382812 45.703125 38.375 C 45.703125 39.742188 45.445312 40.894531 44.925781 41.824219 C 44.421875 42.742188 43.699219 43.519531 42.820312 44.085938 C 41.871094 44.6875 40.820312 45.105469 39.722656 45.328125 C 38.542969 45.578125 37.296875 45.703125 35.992188 45.703125 C 34.707031 45.707031 33.421875 45.59375 32.160156 45.359375 C 31.0625 45.171875 30.003906 44.824219 29.007812 44.332031 L 29.007812 38.855469 C 30.890625 40.457031 33.28125 41.34375 35.753906 41.355469 C 36.445312 41.355469 37.050781 41.292969 37.570312 41.167969 C 38.085938 41.042969 38.519531 40.867188 38.867188 40.644531 C 39.210938 40.421875 39.472656 40.160156 39.644531 39.855469 C 40.035156 39.132812 39.972656 38.25 39.488281 37.585938 C 39.179688 37.175781 38.800781 36.824219 38.371094 36.542969 C 37.835938 36.191406 37.273438 35.878906 36.691406 35.617188 C 35.996094 35.300781 35.296875 35 34.589844 34.710938 C 32.679688 33.914062 31.253906 32.933594 30.316406 31.785156 C 29.378906 30.632812 28.90625 29.238281 28.90625 27.605469 C 28.90625 26.328125 29.164062 25.230469 29.675781 24.308594 C 30.1875 23.390625 30.882812 22.636719 31.765625 22.042969 C 32.699219 21.425781 33.738281 20.980469 34.828125 20.730469 C 36.039062 20.445312 37.273438 20.304688 38.515625 20.3125 Z M 7.03125 20.703125 L 26.953125 20.703125 L 26.953125 25.214844 L 19.804688 25.214844 L 19.804688 45.3125 L 14.144531 45.3125 L 14.144531 25.214844 L 7.03125 25.214844 Z M 7.03125 20.703125 "/>
</g>
</svg>
